<svg width="20" height="21" viewBox="0 0 20 21" fill="none" xmlns="http://www.w3.org/2000/svg">
<g clip-path="url(#clip0_533_1146)">
<path d="M17.8174 15.1484C18.4174 13.8757 18.755 12.4439 18.755 10.9297C18.755 5.64414 14.6487 1.35938 9.58341 1.35938C4.5181 1.35938 0.411865 5.64414 0.411865 10.9297C0.411865 12.4439 0.749416 13.8757 1.34942 15.1484H17.8174Z" fill="#6255FA"/>
<path d="M6.78101 10.2681H7.55894V10.8635H6.78101V10.2681Z" fill="#0F3E4C"/>
<path d="M11.6084 10.2681H12.3863V10.8635H11.6084V10.2681Z" fill="#0F3E4C"/>
<path d="M6.90516 10.8034C6.4954 11.4488 6.65439 12.238 6.86271 12.7903C7.5906 14.72 9.55177 15.4442 9.5715 15.4513L9.58371 15.4557L9.59591 15.4513C9.61564 15.4442 11.5769 14.72 12.3047 12.7903C12.513 12.2381 12.672 11.4491 12.2625 10.8038L12.2564 10.801C11.988 10.6785 11.6983 10.6152 11.4054 10.6152C10.1922 10.6152 8.97722 10.6152 7.76141 10.6152C7.46852 10.6152 7.17878 10.6785 6.91044 10.801L6.90516 10.8034Z" fill="#EBF0F2"/>
<path d="M6.91042 10.801L6.90518 10.8034C6.49538 11.4488 6.65441 12.238 6.86269 12.7904C7.59058 14.72 9.55175 15.4443 9.57152 15.4514L9.58372 15.4557L9.59593 15.4514C9.59686 15.451 9.60252 15.4489 9.61225 15.4452C9.60274 15.4349 9.59361 15.4247 9.58372 15.4144C8.24704 14.0196 9.14948 12.7373 9.14948 12.7373L8.22929 10.6152C8.0733 10.6152 7.91742 10.6152 7.76139 10.6152C7.46846 10.6153 7.17876 10.6785 6.91042 10.801Z" fill="#C2D4E6"/>
<path d="M16.9248 13.1623C16.725 12.7898 16.4079 12.5013 16.0271 12.3456L14.9703 11.9134C15.0842 12.3828 14.8513 12.9604 14.2771 13.6306C13.4426 14.6049 12.2116 15.0964 11.326 15.3371C10.3641 15.5986 9.59018 15.629 9.58506 15.6293C9.57734 15.629 8.80487 15.5987 7.84321 15.3375C6.95701 15.0968 5.72537 14.6053 4.89042 13.6306C4.31617 12.9602 4.08321 12.3825 4.19728 11.9131L3.13978 12.3455C2.75895 12.5013 2.44188 12.7898 2.24209 13.1622C1.94751 13.7112 1.6319 14.4018 1.33081 15.1094C2.24759 17.0768 3.79148 18.6669 5.69104 19.5974V18.6205C5.69104 18.386 5.87488 18.1942 6.0996 18.1942H13.0924C13.3172 18.1942 13.501 18.386 13.501 18.6205V19.585C15.389 18.6528 16.9232 17.068 17.836 15.1094C17.5349 14.4018 17.2193 13.7113 16.9248 13.1623Z" fill="#2C2C42"/>
<path d="M4.89076 13.8684C4.93834 13.8438 4.9788 13.8069 5.00838 13.7618C4.96836 13.7189 4.92879 13.6754 4.89038 13.6306C4.31613 12.9602 4.08317 12.3825 4.19724 11.9131L3.13974 12.3455C2.75891 12.5013 2.44184 12.7898 2.24205 13.1622C1.94751 13.7112 1.6319 14.4018 1.33081 15.1094C1.80051 16.1173 2.43518 17.0259 3.19758 17.7978C3.35218 17.093 3.58997 16.0176 3.75423 15.3157C3.96132 14.4307 4.6225 14.0071 4.89076 13.8684Z" fill="#212135"/>
<path d="M9.58337 20.5002C10.9997 20.5002 12.3409 20.1652 13.5384 19.5669V18.5425C13.5384 18.308 13.3546 18.1162 13.1299 18.1162H6.06213C5.83741 18.1162 5.65356 18.308 5.65356 18.5425V19.5793C6.84467 20.1696 8.17698 20.5002 9.58337 20.5002Z" fill="#FBCC68"/>
<path d="M8.93631 19.0732C8.93631 18.6206 9.22964 18.2362 9.62769 18.1162H6.06213C5.83741 18.1162 5.65356 18.308 5.65356 18.5425V19.5793C6.66038 20.0783 7.7683 20.3907 8.93634 20.4757L8.93631 19.0732Z" fill="#EFAA42"/>
<path d="M12.7459 11.0038L12.3107 10.8259L12.2562 10.801C11.9879 10.6785 11.6982 10.6152 11.4053 10.6152C10.1921 10.6152 8.97708 10.6152 7.76127 10.6152C7.46838 10.6152 7.17864 10.6785 6.9103 10.801L6.85583 10.8259L6.42065 11.0038C6.77471 12.4828 8.0563 13.5784 9.58327 13.5784C11.1102 13.5784 12.3918 12.4828 12.7459 11.0038Z" fill="#C2D4E6"/>
<path d="M7.13798 10.7485C7.16224 10.7423 7.1865 10.736 7.21094 10.7301C7.2264 10.7139 7.24175 10.6969 7.25691 10.6792C7.13858 10.7094 7.0225 10.7496 6.9103 10.8008L6.85583 10.8257L6.42065 11.0037C6.71811 12.2462 7.67038 13.2179 8.87271 13.4969C8.94073 13.0338 9.14936 12.7371 9.14936 12.7371L9.11226 12.6516C8.15655 12.464 7.39041 11.7169 7.13798 10.7485Z" fill="#99B8DA"/>
<path d="M12.054 10.7212C11.8448 10.6512 11.626 10.6152 11.4054 10.6152C10.1922 10.6152 8.97724 10.6152 7.76143 10.6152C7.54082 10.6152 7.32202 10.6512 7.11279 10.7212C7.3699 11.8977 8.37802 12.776 9.58342 12.776C10.7888 12.776 11.7969 11.8977 12.054 10.7212Z" fill="#E0D3CD"/>
<path d="M11.3816 9.63348C11.0663 10.0991 10.6435 10.5343 10.0796 10.8189C9.92624 10.8963 9.75782 10.9391 9.58742 10.9394C9.58614 10.9394 9.58487 10.9394 9.5836 10.9394C9.58266 10.9394 9.58176 10.9394 9.58083 10.9394C9.40968 10.9391 9.24062 10.8959 9.08661 10.818C8.52296 10.5331 8.10043 10.0977 7.78534 9.63184C7.67202 10.0696 7.46179 10.5465 7.2109 10.8083C7.18646 10.8142 7.16223 10.8204 7.13794 10.8266C7.43072 11.9498 8.41417 12.7759 9.58322 12.7759C10.7523 12.7759 11.7357 11.9498 12.0285 10.8266C12.0042 10.8205 11.98 10.8142 11.9555 10.8083C11.705 10.5469 11.495 10.0708 11.3816 9.63348Z" fill="#FFAA7B"/>
<path d="M9.66423 10.9361C9.6387 10.938 9.6131 10.9394 9.58742 10.9394C9.58614 10.9394 9.58491 10.9394 9.5836 10.9394C9.5827 10.9394 9.58176 10.9394 9.58083 10.9394C9.40968 10.9391 9.24062 10.8959 9.08661 10.818C8.52296 10.5331 8.10043 10.0977 7.78534 9.63184C7.67206 10.0696 7.46179 10.5465 7.2109 10.8083C7.18646 10.8142 7.1622 10.8204 7.13794 10.8266C7.39366 11.8076 8.17631 12.562 9.14932 12.7372C9.4653 12.1595 9.60482 11.4853 9.66423 10.9361Z" fill="#F7996B"/>
<path d="M12.9204 5.87455C12.7825 5.74264 12.5077 5.80951 12.3889 5.89029C12.4149 6.0594 12.4164 6.23244 12.3939 6.40326L12.2164 7.46869C12.2164 7.55459 12.2067 7.63885 12.2019 7.72162C12.5438 7.8292 12.758 7.50897 12.7866 7.2892C12.799 7.19459 12.8191 7.10135 12.847 7.01037C12.938 6.71404 13.266 6.20506 12.9204 5.87455Z" fill="#FFAA7B"/>
<path d="M6.24684 5.87455C6.38478 5.74264 6.65956 5.80951 6.77834 5.89029C6.75232 6.0594 6.75082 6.23244 6.77332 6.40326L6.95084 7.46869C6.95084 7.55459 6.96974 7.63885 6.97449 7.72162C6.63264 7.8292 6.40923 7.50897 6.38059 7.2892C6.36827 7.19459 6.34813 7.10135 6.32021 7.01037C6.22928 6.71404 5.90124 6.20506 6.24684 5.87455Z" fill="#F7996B"/>
<path d="M12.3045 5.56122C12.273 5.47532 12.2332 5.38832 12.1831 5.30625C12.0982 5.16727 12.0609 5.0029 12.0722 4.83899C12.105 4.36758 12.0874 3.44559 11.4944 3.16711C10.9905 2.93051 10.3724 3.0675 9.97824 3.2043C9.72226 3.29313 9.44491 3.29313 9.18897 3.2043C8.79481 3.06754 8.17673 2.93055 7.67285 3.16711C7.07809 3.44637 7.06214 4.37286 7.09523 4.84301C7.10669 5.00567 7.06832 5.16836 6.98409 5.30629C6.93767 5.38231 6.90012 5.46254 6.86976 5.54223C6.76479 5.81778 6.73578 6.11852 6.77442 6.41231L6.91345 7.46883C6.91345 7.46883 7.25965 9.97266 9.08662 10.8963C9.24063 10.9741 9.40968 11.0174 9.58083 11.0177H9.58361H9.58742C9.75783 11.0173 9.92625 10.9746 10.0797 10.8972C11.8589 9.99914 12.2347 7.60317 12.2537 7.47469C12.2537 7.47274 12.2538 7.47082 12.2538 7.46887L12.394 6.40344C12.4313 6.11934 12.403 5.82922 12.3045 5.56122Z" fill="#FFBB99"/>
<path d="M8.90683 7.4688L8.81822 6.41228C8.79359 6.11849 8.81208 5.81779 8.87897 5.5422C8.89833 5.46252 8.92225 5.38228 8.95182 5.30627C9.0055 5.16834 9.02995 5.00564 9.02265 4.84298C9.00311 4.4074 9.01063 3.5806 9.31318 3.2392C9.2714 3.22955 9.22981 3.21845 9.18894 3.20427C8.79478 3.06752 8.17673 2.93052 7.67286 3.16709C7.07809 3.44634 7.06215 4.37283 7.09524 4.84298C7.10669 5.00564 7.06832 5.16834 6.98409 5.30627C6.93768 5.38228 6.90013 5.46252 6.86977 5.5422C6.76476 5.81775 6.73579 6.11849 6.77442 6.41228L6.91346 7.4688C6.91346 7.4688 7.25965 9.97263 9.08663 10.8962C9.24063 10.9741 9.40969 11.0174 9.58084 11.0176H9.58361H9.58739C9.7578 11.0173 9.92622 10.9745 10.0796 10.8971C10.124 10.8747 10.1673 10.8511 10.2099 10.8269C9.11721 9.8538 8.90683 7.4688 8.90683 7.4688Z" fill="#FFAA7B"/>
<path d="M13.368 3.78336C13.5416 3.75578 13.7327 3.6132 13.8378 3.52418C13.8756 3.49215 13.8678 3.43074 13.8241 3.4084C13.0026 2.98898 12.5091 1.62938 11.8414 1.19781C11.2699 0.828438 10.777 1.04117 10.6219 1.12703C10.593 1.14301 10.557 1.13426 10.538 1.10656C10.3174 0.785665 9.95114 0.595235 9.736 0.505235C9.67857 0.481212 9.62381 0.544454 9.65248 0.60168C9.74749 0.791368 9.78751 0.94586 9.80424 1.04777C9.8133 1.10309 9.75797 1.14582 9.70976 1.12094C8.9894 0.749415 7.70845 1.01391 6.92647 2.0116C6.27585 2.84172 5.77453 2.96617 5.59379 2.98199C5.55287 2.98559 5.52491 3.02684 5.53543 3.06824C5.60547 3.34426 5.87564 3.52305 5.99 3.58785C6.02178 3.60586 6.03504 3.64793 6.01688 3.68055C5.9626 3.77809 5.84659 3.83723 5.77849 3.86492C5.74813 3.87727 5.73125 3.91082 5.7384 3.94398C5.8041 4.24918 6.11406 5.63293 6.44221 6.16937C6.67098 6.54336 6.79605 7.04855 6.85823 7.37957C6.86706 7.4266 6.93269 7.42238 6.93591 7.37457C6.96031 7.01344 6.99573 6.42473 7.00954 5.87313C7.0265 5.19641 7.59304 4.79871 7.85119 4.65227C7.90102 4.62398 7.95956 4.67043 7.94732 4.7282L7.91206 4.89488C7.90195 4.9427 7.94145 4.98625 7.98768 4.9782C9.92276 4.64035 10.6334 3.9427 10.8928 3.50785C10.9109 3.47746 10.9463 3.46395 10.979 3.47488C11.0088 3.48488 11.0291 3.51348 11.0306 3.54617C11.0911 4.84543 12.0538 5.00375 12.1927 5.58012C12.3067 6.05301 12.2776 6.95023 12.2557 7.37359C12.2527 7.43148 12.3288 7.45219 12.3525 7.39977C12.6543 6.73352 12.611 5.81234 13.0907 5.20352C13.4804 4.70883 13.6617 4.3843 13.7307 4.24641C13.7498 4.20836 13.7303 4.16285 13.6912 4.14961C13.516 4.09047 13.3975 3.9807 13.3275 3.89633C13.2936 3.85543 13.3166 3.79152 13.368 3.78336Z" fill="#404051"/>
<path d="M14.0147 10.9791C13.9066 10.9408 13.8135 10.8658 13.7517 10.7656C13.5373 10.4186 12.8987 9.67274 11.6086 10.2681C11.6086 10.2681 12.9999 10.8406 12.2699 12.7759C11.5399 14.7112 9.58374 15.4143 9.58374 15.4143V15.6682C9.58374 15.6682 12.6766 15.5575 14.305 13.6565C15.8621 11.8387 14.525 11.1599 14.0147 10.9791Z" fill="#404051"/>
<path d="M5.1526 10.9791C5.26071 10.9408 5.35381 10.8658 5.41566 10.7656C5.63008 10.4186 6.26861 9.67274 7.5588 10.2681C7.5588 10.2681 6.16746 10.8406 6.89744 12.7759C7.62742 14.7112 9.58362 15.4143 9.58362 15.4143V15.6682C9.58362 15.6682 6.49075 15.5575 4.86233 13.6565C3.30519 11.8387 4.64229 11.1599 5.1526 10.9791Z" fill="#404051"/>
<path d="M4.98501 13.7929C5.00904 13.7647 5.02836 13.7321 5.04123 13.6961C5.26989 13.057 5.80416 13.3846 6.08754 12.8566C6.38702 12.2986 6.80292 12.4933 6.80292 12.4933C6.30462 10.7844 7.5588 10.2681 7.5588 10.2681C6.26861 9.67274 5.63008 10.4186 5.41566 10.7656C5.35381 10.8658 5.26071 10.9408 5.1526 10.9791C4.64229 11.1598 3.30519 11.8387 4.86233 13.6565C4.90227 13.7032 4.94334 13.7484 4.98501 13.7929Z" fill="#2C2C42"/>
<path d="M14.0999 16.7749V19.2607C14.2914 19.1474 14.4787 19.0269 14.6614 18.8999V16.7749C14.6614 16.6131 14.5357 16.4819 14.3806 16.4819C14.2256 16.4819 14.0999 16.6131 14.0999 16.7749Z" fill="#212135"/>
<path d="M5.09204 16.7749C5.09204 16.6131 4.96633 16.4819 4.81128 16.4819C4.65622 16.4819 4.53052 16.6131 4.53052 16.7749V18.9175C4.7132 19.0436 4.90052 19.1629 5.09204 19.2754V16.7749Z" fill="#212135"/>
<path d="M12.3637 14.9504C12.6482 14.9504 12.8788 14.7098 12.8788 14.4129C12.8788 14.1161 12.6482 13.8755 12.3637 13.8755C12.0792 13.8755 11.8486 14.1161 11.8486 14.4129C11.8486 14.7098 12.0792 14.9504 12.3637 14.9504Z" fill="#2C2C42"/>
<path d="M6.80291 14.9504C7.08737 14.9504 7.31798 14.7098 7.31798 14.4129C7.31798 14.1161 7.08737 13.8755 6.80291 13.8755C6.51845 13.8755 6.28784 14.1161 6.28784 14.4129C6.28784 14.7098 6.51845 14.9504 6.80291 14.9504Z" fill="#2C2C42"/>
<path d="M12.3638 14.2417C12.2087 14.2417 12.083 14.3728 12.083 14.5347V18.8195C12.083 18.9813 12.2087 19.1125 12.3638 19.1125C12.5188 19.1125 12.6445 18.9813 12.6445 18.8195V14.5347C12.6445 14.3729 12.5188 14.2417 12.3638 14.2417Z" fill="#545460"/>
<path d="M12.3636 17.939C12.1507 17.939 11.978 18.1191 11.978 18.3413V18.9754C11.978 19.1977 12.1506 19.3778 12.3636 19.3778C12.5765 19.3778 12.7492 19.1977 12.7492 18.9754V18.3413C12.7492 18.1191 12.5765 17.939 12.3636 17.939Z" fill="#EBF0F2"/>
<path d="M6.80298 14.2417C6.64792 14.2417 6.52222 14.3728 6.52222 14.5347V18.8195C6.52222 18.9813 6.64792 19.1125 6.80298 19.1125C6.95803 19.1125 7.08374 18.9813 7.08374 18.8195V14.5347C7.08374 14.3729 6.95803 14.2417 6.80298 14.2417Z" fill="#545460"/>
<path d="M6.80306 17.939C6.59013 17.939 6.41748 18.1191 6.41748 18.3413V18.9754C6.41748 19.1977 6.59009 19.3778 6.80306 19.3778C7.01603 19.3778 7.18864 19.1977 7.18864 18.9754V18.3413C7.18864 18.1191 7.01603 17.939 6.80306 17.939Z" fill="#EBF0F2"/>
<path d="M12.3636 18.7524C12.1507 18.7524 11.978 18.5723 11.978 18.3501V18.9751C11.978 19.1973 12.1507 19.3774 12.3636 19.3774C12.5766 19.3774 12.7492 19.1973 12.7492 18.9751V18.3501C12.7492 18.5724 12.5765 18.7524 12.3636 18.7524Z" fill="#C2D4E6"/>
<path d="M6.80306 18.7524C6.59013 18.7524 6.41748 18.5723 6.41748 18.3501V18.9751C6.41748 19.1973 6.59009 19.3774 6.80306 19.3774C7.01603 19.3774 7.18864 19.1973 7.18864 18.9751V18.3501C7.18864 18.5724 7.01603 18.7524 6.80306 18.7524Z" fill="#C2D4E6"/>
<path d="M9.0262 2.41193C8.07408 1.61966 9.70976 1.12087 9.70976 1.12087C8.9894 0.749349 7.70845 1.01384 6.92647 2.01154C6.27585 2.84165 5.77453 2.96611 5.59379 2.98193C5.55287 2.98552 5.52491 3.02677 5.53543 3.06818C5.60547 3.34419 5.87564 3.52298 5.99 3.58779C6.02178 3.60579 6.03504 3.64786 6.01688 3.68048C5.9626 3.77802 5.84659 3.83716 5.77849 3.86486C5.74813 3.8772 5.73125 3.91076 5.7384 3.94392C5.8041 4.24911 6.11406 5.63286 6.44221 6.16931C6.67098 6.54329 6.79605 7.04849 6.85823 7.37951C6.86706 7.42654 6.93269 7.42232 6.93591 7.37451C6.96031 7.01337 6.99573 6.42466 7.0095 5.87306C7.02646 5.19634 7.593 4.79865 7.85115 4.6522C7.90098 4.62392 7.95953 4.67036 7.94728 4.72814L7.91202 4.89482C7.90191 4.94263 7.94141 4.98618 7.98768 4.97814C8.3797 4.9097 8.72069 4.8263 9.01863 4.73353C8.60618 3.65087 9.9782 3.20411 9.0262 2.41193Z" fill="#2C2C42"/>
</g>
<defs>
<clipPath id="clip0_533_1146">
<rect width="19.1667" height="20" fill="white" transform="translate(0 0.5)"/>
</clipPath>
</defs>
</svg>
