<svg width="49" height="42" viewBox="0 0 49 42" fill="none" xmlns="http://www.w3.org/2000/svg">
<path d="M31.9356 8.53906H17.5646C15.8933 8.53906 14.5388 9.91692 14.5388 11.617V27.8611C14.5388 29.5611 15.8933 30.939 17.5646 30.939H23.7429V29.1357C22.9659 28.2776 22.4864 27.1365 22.4864 25.8806C22.4864 23.2273 24.6092 21.0679 27.2176 21.0679C29.8259 21.0679 31.9478 23.2264 31.9478 25.8806C31.9478 27.1374 31.4683 28.2794 30.6896 29.1374V30.939H31.9338C33.6051 30.939 34.9596 29.5611 34.9596 27.8611V11.617C34.9613 9.91692 33.6068 8.53906 31.9356 8.53906ZM22.8469 18.6389H19.2113C18.7764 18.6389 18.4238 18.2802 18.4238 17.8378C18.4238 17.3954 18.7764 17.0367 19.2113 17.0367H22.8469C23.2818 17.0367 23.6344 17.3954 23.6344 17.8378C23.6344 18.2802 23.2818 18.6389 22.8469 18.6389ZM27.2989 14.2837H19.2113C18.7764 14.2837 18.4238 13.925 18.4238 13.4826C18.4238 13.0402 18.7764 12.6815 19.2113 12.6815H27.2989C27.7338 12.6815 28.0864 13.0402 28.0864 13.4826C28.0864 13.925 27.7338 14.2837 27.2989 14.2837Z" fill="#556987"/>
<path d="M27.2185 30.6944C26.4389 30.6944 25.7048 30.4986 25.0564 30.1577V33.4617L27.2176 31.8863L29.3789 33.4617V30.1577C28.7305 30.4986 27.9973 30.6944 27.2185 30.6944Z" fill="#556987"/>
<path d="M27.2184 29.3589C29.1065 29.3589 30.6371 27.802 30.6371 25.8814C30.6371 23.9608 29.1065 22.4038 27.2184 22.4038C25.3304 22.4038 23.7998 23.9608 23.7998 25.8814C23.7998 27.802 25.3304 29.3589 27.2184 29.3589Z" fill="#556987"/>
</svg>
