<svg width="20" height="20" viewBox="0 0 20 20" fill="none" xmlns="http://www.w3.org/2000/svg">
<path d="M16.8453 8.60245C16.378 8.11308 15.7568 7.8437 15.0962 7.8437H14.9172V5.26808C14.9172 2.63714 12.8742 0.496826 10.363 0.496826H10.1946C7.68341 0.496826 5.64024 2.63714 5.64024 5.26808V7.84354H5.46126C4.80068 7.84354 4.17948 8.11308 3.7122 8.60245C3.24507 9.09198 2.98779 9.74276 2.98779 10.4349V16.9118C2.98779 17.604 3.24507 18.2548 3.7122 18.744C4.17933 19.2335 4.80053 19.5031 5.46126 19.5031H15.0962C15.7569 19.5031 16.3781 19.2335 16.8454 18.744C17.3125 18.2546 17.5698 17.6039 17.5698 16.9118V10.4349C17.5698 9.74292 17.3125 9.09214 16.8453 8.60245ZM6.83342 5.26808C6.83342 3.32651 8.34115 1.74683 10.1946 1.74683H10.363C12.2163 1.74683 13.724 3.32651 13.724 5.26808V7.84354H6.83342V5.26808ZM16.3766 16.9118C16.3766 17.2648 16.2399 17.6104 16.0017 17.8601C15.7598 18.1135 15.4382 18.2531 15.0962 18.2531H5.46126C5.11926 18.2531 4.79785 18.1135 4.55578 17.8599C4.31401 17.6068 4.18083 17.2701 4.18083 16.9118V10.4349C4.18083 10.0767 4.31401 9.73964 4.55578 9.48636C4.7977 9.23308 5.11911 9.09354 5.46111 9.09354H15.0961C15.438 9.09354 15.7596 9.23308 16.0014 9.4862C16.2433 9.73979 16.3765 10.0767 16.3765 10.4349L16.3766 16.9118Z" fill="#BBC3CF"/>
<path d="M10.2787 11.9475C9.94925 11.9475 9.68213 12.2274 9.68213 12.5725V14.7744C9.68213 15.1195 9.94925 15.3994 10.2787 15.3994C10.6082 15.3994 10.8753 15.1195 10.8753 14.7744V12.5725C10.8753 12.2274 10.6082 11.9475 10.2787 11.9475Z" fill="#BBC3CF"/>
</svg>
