<svg width="20" height="18" viewBox="0 0 20 18" fill="none" xmlns="http://www.w3.org/2000/svg">
<path d="M9.5918 8.4021H11.0684V11.7615H9.5918V8.4021Z" fill="url(#paint0_linear_109_108)"/>
<path d="M8.66211 13.199C8.66211 12.2771 9.4082 11.5232 10.3301 11.5232C11.252 11.5232 11.998 12.2771 11.998 13.199H8.66211Z" fill="url(#paint1_linear_109_108)"/>
<path d="M7.98633 13.199H12.6738C13.1035 13.199 13.4551 13.5505 13.4551 13.9802V15.3474H7.20508V13.9802C7.20508 13.5505 7.55664 13.199 7.98633 13.199Z" fill="url(#paint2_linear_109_108)"/>
<path d="M6.7168 15.3474H13.9434C14.5371 15.3474 15.0176 15.8279 15.0176 16.4216C15.0176 17.0154 14.5371 17.4958 13.9434 17.4958H6.7168C6.12305 17.4958 5.64258 17.0154 5.64258 16.4216C5.64258 15.8279 6.12305 15.3474 6.7168 15.3474Z" fill="url(#paint3_linear_109_108)"/>
<path d="M11.9123 12.863C11.8146 12.863 11.7287 12.7888 11.717 12.6873C11.7053 12.5779 11.7834 12.4841 11.8928 12.4724C11.9162 12.4685 13.3654 12.3044 14.7482 11.2029C16.5803 9.74195 17.4748 7.28492 17.3264 4.10523C17.3225 3.99585 17.4045 3.90601 17.5139 3.9021C17.6193 3.89429 17.7131 3.98023 17.717 4.0896C17.799 5.93726 17.5529 7.54664 16.9787 8.87476C16.5139 9.94507 15.842 10.8357 14.9748 11.5232C13.4982 12.6912 11.9943 12.8591 11.9318 12.863C11.9279 12.863 11.9201 12.863 11.9123 12.863Z" fill="url(#paint4_linear_109_108)"/>
<path d="M19.0293 6.37085C18.3418 6.94117 17.3691 6.8982 17.3691 6.8982C17.3691 6.8982 17.5098 5.93335 18.1973 5.36304C18.8848 4.79273 19.8574 4.8357 19.8574 4.8357C19.8574 4.8357 19.7168 5.80054 19.0293 6.37085Z" fill="url(#paint5_linear_109_108)"/>
<path d="M16.9749 5.19897C17.4866 5.92944 17.3655 6.89819 17.3655 6.89819C17.3655 6.89819 16.4163 6.67944 15.9046 5.94897C15.3929 5.21851 15.514 4.24976 15.514 4.24976C15.514 4.24976 16.4632 4.46851 16.9749 5.19897Z" fill="url(#paint6_linear_109_108)"/>
<path d="M16.4555 7.31226C16.9047 8.08569 16.7016 9.03882 16.7016 9.03882C16.7016 9.03882 15.7719 8.73804 15.3266 7.96851C14.8774 7.19507 15.0805 6.24194 15.0805 6.24194C15.0805 6.24194 16.0102 6.53882 16.4555 7.31226Z" fill="url(#paint7_linear_109_108)"/>
<path d="M15.596 9.29663C15.7757 10.1716 15.2796 11.0115 15.2796 11.0115C15.2796 11.0115 14.4945 10.4333 14.3187 9.55835C14.1429 8.68335 14.6351 7.84351 14.6351 7.84351C14.6351 7.84351 15.4163 8.42163 15.596 9.29663Z" fill="url(#paint8_linear_109_108)"/>
<path d="M14.2246 10.8708C14.041 11.7458 13.252 12.3201 13.252 12.3201C13.252 12.3201 12.7598 11.4763 12.9434 10.6052C13.127 9.73413 13.916 9.15601 13.916 9.15601C13.916 9.15601 14.4082 9.99585 14.2246 10.8708Z" fill="url(#paint9_linear_109_108)"/>
<path d="M18.4004 8.66394C17.666 9.16784 16.6973 9.03894 16.6973 9.03894C16.6973 9.03894 16.9238 8.08972 17.6621 7.58581C18.4004 7.08191 19.3652 7.21081 19.3652 7.21081C19.3652 7.21081 19.1387 8.16003 18.4004 8.66394Z" fill="url(#paint10_linear_109_108)"/>
<path d="M17.0254 11.0271C16.1934 11.3514 15.2832 11.0076 15.2832 11.0076C15.2832 11.0076 15.7207 10.1365 16.5527 9.8123C17.3848 9.48808 18.2949 9.83183 18.2949 9.83183C18.2949 9.83183 17.8574 10.7029 17.0254 11.0271Z" fill="url(#paint11_linear_109_108)"/>
<path d="M14.8496 13.0075C13.9551 12.984 13.252 12.3122 13.252 12.3122C13.252 12.3122 13.9941 11.6793 14.8848 11.7028C15.7754 11.7262 16.4824 12.3981 16.4824 12.3981C16.4824 12.3981 15.7402 13.0309 14.8496 13.0075Z" fill="url(#paint12_linear_109_108)"/>
<path d="M18.1934 3.62476C18.1934 4.51929 17.541 5.24194 17.541 5.24194C17.541 5.24194 16.8887 4.51929 16.8887 3.62476C16.8887 2.73022 17.5371 2.00757 17.5371 2.00757C17.5371 2.00757 18.1934 2.73022 18.1934 3.62476Z" fill="url(#paint13_linear_109_108)"/>
<path d="M8.74796 12.863C8.84561 12.863 8.93155 12.7888 8.94327 12.6873C8.95499 12.5779 8.87686 12.4841 8.76749 12.4724C8.74405 12.4685 7.29483 12.3044 5.91202 11.2029C4.07999 9.74195 3.18546 7.28492 3.3339 4.10523C3.3378 3.99585 3.25577 3.90601 3.1464 3.9021C3.04093 3.89429 2.94718 3.98023 2.94327 4.0896C2.85733 5.93726 3.10733 7.54664 3.68155 8.87476C4.1464 9.94507 4.81827 10.8357 5.68546 11.5232C7.16202 12.6912 8.66593 12.8591 8.72843 12.863H8.74796Z" fill="url(#paint14_linear_109_108)"/>
<path d="M1.63086 6.37085C2.31836 6.94117 3.29492 6.8982 3.29492 6.8982C3.29492 6.8982 3.1543 5.93335 2.4668 5.36304C1.7793 4.79273 0.802734 4.8357 0.802734 4.8357C0.802734 4.8357 0.943359 5.80054 1.63086 6.37085Z" fill="url(#paint15_linear_109_108)"/>
<path d="M3.68535 5.19897C3.17363 5.92944 3.29472 6.89819 3.29472 6.89819C3.29472 6.89819 4.24394 6.67944 4.75566 5.94897C5.26738 5.21851 5.14629 4.24976 5.14629 4.24976C5.14629 4.24976 4.19707 4.46851 3.68535 5.19897Z" fill="url(#paint16_linear_109_108)"/>
<path d="M4.20507 7.31226C3.75976 8.08569 3.95898 9.03882 3.95898 9.03882C3.95898 9.03882 4.88866 8.73804 5.33398 7.96851C5.77929 7.19897 5.58007 6.24194 5.58007 6.24194C5.58007 6.24194 4.65038 6.53882 4.20507 7.31226Z" fill="url(#paint17_linear_109_108)"/>
<path d="M5.06461 9.29663C4.88492 10.1716 5.38101 11.0115 5.38101 11.0115C5.38101 11.0115 6.16617 10.4333 6.34586 9.55835C6.52554 8.68335 6.02945 7.84351 6.02945 7.84351C6.02945 7.84351 5.24429 8.42163 5.06461 9.29663Z" fill="url(#paint18_linear_109_108)"/>
<path d="M6.43555 10.8708C6.61915 11.7458 7.40821 12.3201 7.40821 12.3201C7.40821 12.3201 7.9004 11.4763 7.7168 10.6052C7.53321 9.73413 6.74415 9.15601 6.74415 9.15601C6.74415 9.15601 6.25196 9.99585 6.43555 10.8708Z" fill="url(#paint19_linear_109_108)"/>
<path d="M2.25977 8.66394C2.99414 9.16784 3.96289 9.03894 3.96289 9.03894C3.96289 9.03894 3.73633 8.08972 2.99805 7.58581C2.25977 7.08191 1.29492 7.21081 1.29492 7.21081C1.29492 7.21081 1.52148 8.16003 2.25977 8.66394Z" fill="url(#paint20_linear_109_108)"/>
<path d="M3.63477 11.0271C4.4668 11.3514 5.37695 11.0076 5.37695 11.0076C5.37695 11.0076 4.93945 10.1365 4.11133 9.8123C3.2793 9.48808 2.36914 9.83183 2.36914 9.83183C2.36914 9.83183 2.80273 10.7029 3.63477 11.0271Z" fill="url(#paint21_linear_109_108)"/>
<path d="M5.81055 13.0075C6.70508 12.984 7.4082 12.3122 7.4082 12.3122C7.4082 12.3122 6.66602 11.6793 5.77539 11.7028C4.88477 11.7262 4.17773 12.3981 4.17773 12.3981C4.17773 12.3981 4.91992 13.0309 5.81055 13.0075Z" fill="url(#paint22_linear_109_108)"/>
<path d="M2.4668 3.62476C2.4668 4.51929 3.11914 5.24194 3.11914 5.24194C3.11914 5.24194 3.77148 4.51929 3.77148 3.62476C3.77148 2.73022 3.11914 2.00757 3.11914 2.00757C3.11914 2.00757 2.4668 2.73022 2.4668 3.62476Z" fill="url(#paint23_linear_109_108)"/>
<path d="M11.2987 1.0896L12.1894 2.78882L14.0839 3.10913C14.955 3.25757 15.3026 4.32398 14.6855 4.95288L13.3417 6.32788L13.619 8.22632C13.748 9.10132 12.8417 9.75757 12.0487 9.36694L10.33 8.51929L8.61124 9.37085C7.81827 9.76148 6.91202 9.10523 7.04092 8.23023L7.31827 6.33179L5.97452 4.95679C5.35733 4.32398 5.70499 3.26148 6.57608 3.11304L8.47061 2.79273L9.36124 1.09351C9.77139 0.30835 10.8886 0.308351 11.2987 1.0896Z" fill="url(#paint24_linear_109_108)"/>
<defs>
<linearGradient id="paint0_linear_109_108" x1="10.3303" y1="11.7605" x2="10.3303" y2="8.4019" gradientUnits="userSpaceOnUse">
<stop stop-color="#FCD34F"/>
<stop offset="1" stop-color="#FF6A00"/>
</linearGradient>
<linearGradient id="paint1_linear_109_108" x1="10.3301" y1="11.5218" x2="10.3301" y2="13.1992" gradientUnits="userSpaceOnUse">
<stop stop-color="#FCD34F"/>
<stop offset="1" stop-color="#FF6A00"/>
</linearGradient>
<linearGradient id="paint2_linear_109_108" x1="10.3301" y1="15.3476" x2="10.3301" y2="13.1992" gradientUnits="userSpaceOnUse">
<stop stop-color="#3D5969"/>
<stop offset="1" stop-color="#698999"/>
</linearGradient>
<linearGradient id="paint3_linear_109_108" x1="10.3301" y1="17.496" x2="10.3301" y2="15.3476" gradientUnits="userSpaceOnUse">
<stop stop-color="#FF9900"/>
<stop offset="1" stop-color="#FCD34F"/>
</linearGradient>
<linearGradient id="paint4_linear_109_108" x1="14.7264" y1="3.89929" x2="14.7264" y2="12.8632" gradientUnits="userSpaceOnUse">
<stop stop-color="#FF9900"/>
<stop offset="1" stop-color="#FCD34F"/>
</linearGradient>
<linearGradient id="paint5_linear_109_108" x1="18.6047" y1="6.90829" x2="18.6053" y2="4.84609" gradientUnits="userSpaceOnUse">
<stop stop-color="#FF9900"/>
<stop offset="1" stop-color="#FCD34F"/>
</linearGradient>
<linearGradient id="paint6_linear_109_108" x1="16.4384" y1="6.91592" x2="16.4389" y2="4.26784" gradientUnits="userSpaceOnUse">
<stop stop-color="#FF9900"/>
<stop offset="1" stop-color="#FCD34F"/>
</linearGradient>
<linearGradient id="paint7_linear_109_108" x1="15.8298" y1="9.01301" x2="15.9327" y2="6.28077" gradientUnits="userSpaceOnUse">
<stop stop-color="#FF9900"/>
<stop offset="1" stop-color="#FCD34F"/>
</linearGradient>
<linearGradient id="paint8_linear_109_108" x1="14.9573" y1="11.0022" x2="14.9566" y2="7.83324" gradientUnits="userSpaceOnUse">
<stop stop-color="#FF9900"/>
<stop offset="1" stop-color="#FCD34F"/>
</linearGradient>
<linearGradient id="paint9_linear_109_108" x1="13.5941" y1="12.3091" x2="13.5931" y2="9.14384" gradientUnits="userSpaceOnUse">
<stop stop-color="#FF9900"/>
<stop offset="1" stop-color="#FCD34F"/>
</linearGradient>
<linearGradient id="paint10_linear_109_108" x1="18.0034" y1="9.08682" x2="18.0764" y2="7.14933" gradientUnits="userSpaceOnUse">
<stop stop-color="#FF9900"/>
<stop offset="1" stop-color="#FCD34F"/>
</linearGradient>
<linearGradient id="paint11_linear_109_108" x1="16.7713" y1="11.1532" x2="16.7718" y2="9.65759" gradientUnits="userSpaceOnUse">
<stop stop-color="#FF9900"/>
<stop offset="1" stop-color="#FCD34F"/>
</linearGradient>
<linearGradient id="paint12_linear_109_108" x1="14.8729" y1="13.0289" x2="14.8725" y2="11.7214" gradientUnits="userSpaceOnUse">
<stop stop-color="#FF9900"/>
<stop offset="1" stop-color="#FCD34F"/>
</linearGradient>
<linearGradient id="paint13_linear_109_108" x1="17.5391" y1="5.24058" x2="17.5391" y2="2.00698" gradientUnits="userSpaceOnUse">
<stop stop-color="#FF9900"/>
<stop offset="1" stop-color="#FCD34F"/>
</linearGradient>
<linearGradient id="paint14_linear_109_108" x1="5.93425" y1="3.89929" x2="5.93425" y2="12.8632" gradientUnits="userSpaceOnUse">
<stop stop-color="#FF9900"/>
<stop offset="1" stop-color="#FCD34F"/>
</linearGradient>
<linearGradient id="paint15_linear_109_108" x1="2.05554" y1="6.90803" x2="2.05496" y2="4.84583" gradientUnits="userSpaceOnUse">
<stop stop-color="#FF9900"/>
<stop offset="1" stop-color="#FCD34F"/>
</linearGradient>
<linearGradient id="paint16_linear_109_108" x1="4.22144" y1="6.91574" x2="4.22092" y2="4.26769" gradientUnits="userSpaceOnUse">
<stop stop-color="#FF9900"/>
<stop offset="1" stop-color="#FCD34F"/>
</linearGradient>
<linearGradient id="paint17_linear_109_108" x1="4.83079" y1="9.01315" x2="4.72793" y2="6.28093" gradientUnits="userSpaceOnUse">
<stop stop-color="#FF9900"/>
<stop offset="1" stop-color="#FCD34F"/>
</linearGradient>
<linearGradient id="paint18_linear_109_108" x1="5.70384" y1="11.0024" x2="5.70462" y2="7.83348" gradientUnits="userSpaceOnUse">
<stop stop-color="#FF9900"/>
<stop offset="1" stop-color="#FCD34F"/>
</linearGradient>
<linearGradient id="paint19_linear_109_108" x1="7.06661" y1="12.3094" x2="7.06766" y2="9.14416" gradientUnits="userSpaceOnUse">
<stop stop-color="#FF9900"/>
<stop offset="1" stop-color="#FCD34F"/>
</linearGradient>
<linearGradient id="paint20_linear_109_108" x1="2.65671" y1="9.08702" x2="2.58371" y2="7.14953" gradientUnits="userSpaceOnUse">
<stop stop-color="#FF9900"/>
<stop offset="1" stop-color="#FCD34F"/>
</linearGradient>
<linearGradient id="paint21_linear_109_108" x1="3.88891" y1="11.1529" x2="3.88839" y2="9.65735" gradientUnits="userSpaceOnUse">
<stop stop-color="#FF9900"/>
<stop offset="1" stop-color="#FCD34F"/>
</linearGradient>
<linearGradient id="paint22_linear_109_108" x1="5.78756" y1="13.0291" x2="5.78796" y2="11.7215" gradientUnits="userSpaceOnUse">
<stop stop-color="#FF9900"/>
<stop offset="1" stop-color="#FCD34F"/>
</linearGradient>
<linearGradient id="paint23_linear_109_108" x1="3.12109" y1="5.24058" x2="3.12109" y2="2.00698" gradientUnits="userSpaceOnUse">
<stop stop-color="#FF9900"/>
<stop offset="1" stop-color="#FCD34F"/>
</linearGradient>
<linearGradient id="paint24_linear_109_108" x1="10.3299" y1="9.48737" x2="10.3299" y2="0.50335" gradientUnits="userSpaceOnUse">
<stop stop-color="#FF9900"/>
<stop offset="0.11" stop-color="#FFA200"/>
<stop offset="0.37" stop-color="#FFB300"/>
<stop offset="0.65" stop-color="#FFBD00"/>
<stop offset="1" stop-color="#FFC100"/>
</linearGradient>
</defs>
</svg>
