<svg width="20" height="20" viewBox="0 0 20 20" fill="none" xmlns="http://www.w3.org/2000/svg">
<path d="M6.875 17.5H2.5V2.50001H8.75V5.00001C8.75 5.33153 8.8817 5.64947 9.11612 5.88389C9.35054 6.11831 9.66848 6.25001 10 6.25001H12.5V9.37501C12.5 9.54077 12.5658 9.69974 12.6831 9.81695C12.8003 9.93416 12.9592 10 13.125 10C13.2908 10 13.4497 9.93416 13.5669 9.81695C13.6842 9.69974 13.75 9.54077 13.75 9.37501V5.62501C13.7505 5.54276 13.7347 5.46122 13.7036 5.38507C13.6725 5.30892 13.6267 5.23966 13.5687 5.18126L9.81875 1.43126C9.76035 1.37333 9.69109 1.32751 9.61494 1.2964C9.53879 1.2653 9.45725 1.24953 9.375 1.25001H2.5C2.16848 1.25001 1.85054 1.38171 1.61612 1.61613C1.3817 1.85055 1.25 2.16849 1.25 2.50001V17.5C1.25 17.8315 1.3817 18.1495 1.61612 18.3839C1.85054 18.6183 2.16848 18.75 2.5 18.75H6.875C7.04076 18.75 7.19973 18.6842 7.31694 18.567C7.43415 18.4497 7.5 18.2908 7.5 18.125C7.5 17.9592 7.43415 17.8003 7.31694 17.6831C7.19973 17.5659 7.04076 17.5 6.875 17.5ZM10 3.38126L11.6187 5.00001H10V3.38126Z" fill="black"/>
<path d="M4.375 8.75H7.5C7.66576 8.75 7.82473 8.68415 7.94194 8.56694C8.05915 8.44973 8.125 8.29076 8.125 8.125C8.125 7.95924 8.05915 7.80027 7.94194 7.68306C7.82473 7.56585 7.66576 7.5 7.5 7.5H4.375C4.20924 7.5 4.05027 7.56585 3.93306 7.68306C3.81585 7.80027 3.75 7.95924 3.75 8.125C3.75 8.29076 3.81585 8.44973 3.93306 8.56694C4.05027 8.68415 4.20924 8.75 4.375 8.75Z" fill="black"/>
<path d="M11.25 10.625C11.25 10.4592 11.1842 10.3003 11.0669 10.1831C10.9497 10.0658 10.7908 10 10.625 10H4.375C4.20924 10 4.05027 10.0658 3.93306 10.1831C3.81585 10.3003 3.75 10.4592 3.75 10.625C3.75 10.7908 3.81585 10.9497 3.93306 11.0669C4.05027 11.1842 4.20924 11.25 4.375 11.25H10.625C10.7908 11.25 10.9497 11.1842 11.0669 11.0669C11.1842 10.9497 11.25 10.7908 11.25 10.625Z" fill="black"/>
<path d="M4.375 12.5C4.20924 12.5 4.05027 12.5658 3.93306 12.6831C3.81585 12.8003 3.75 12.9592 3.75 13.125C3.75 13.2908 3.81585 13.4497 3.93306 13.5669C4.05027 13.6842 4.20924 13.75 4.375 13.75H9.375C9.54076 13.75 9.69973 13.6842 9.81694 13.5669C9.93415 13.4497 10 13.2908 10 13.125C10 12.9592 9.93415 12.8003 9.81694 12.6831C9.69973 12.5658 9.54076 12.5 9.375 12.5H4.375Z" fill="black"/>
<path d="M16.875 8.75H16.7688C16.2717 8.75044 15.7951 8.94827 15.4438 9.3L9.6813 15.0625C9.53039 15.219 9.42458 15.4133 9.37505 15.625L8.75005 17.975C8.72359 18.0796 8.72465 18.1892 8.75313 18.2933C8.7816 18.3973 8.83652 18.4922 8.91255 18.5687C8.99206 18.6502 9.09229 18.7083 9.20243 18.737C9.31257 18.7656 9.42845 18.7636 9.53755 18.7312L11.875 18.125C12.0962 18.0716 12.2977 17.9568 12.4563 17.7937L18.2188 12.0312C18.5576 11.6831 18.7481 11.217 18.75 10.7313V10.625C18.75 10.1277 18.5525 9.65081 18.2009 9.29917C17.8492 8.94754 17.3723 8.75 16.875 8.75ZM12.8125 15.6813L11.8188 14.6875L15.3125 11.1937L16.3063 12.1875L12.8125 15.6813ZM11.5625 16.9312L10.2375 17.2625L10.5688 15.9375L10.9438 15.5625L11.9375 16.5562L11.5625 16.9312ZM17.5 10.7313C17.5005 10.8135 17.4848 10.895 17.4537 10.9712C17.4226 11.0473 17.3767 11.1166 17.3188 11.175L17.1875 11.3063L16.1938 10.3125L16.325 10.1813C16.3834 10.1233 16.4527 10.0775 16.5289 10.0464C16.605 10.0153 16.6865 9.99952 16.7688 10H16.875C17.0408 10 17.1998 10.0658 17.317 10.1831C17.4342 10.3003 17.5 10.4592 17.5 10.625V10.7313Z" fill="black"/>
</svg>
