<svg width="20" height="20" viewBox="0 0 20 20" fill="none" xmlns="http://www.w3.org/2000/svg">
<g clip-path="url(#clip0_20_348)">
<path d="M19.2858 14.0534C19.2302 13.9609 19.1517 13.8843 19.0578 13.8311C18.9639 13.778 18.8578 13.75 18.7499 13.75H16.6296C16.3861 13.2647 16.2563 12.7304 16.2499 12.1875C16.2495 11.6299 16.3836 11.0804 16.6406 10.5855C17.4288 10.4879 18.15 10.0932 18.6569 9.48194C19.1639 8.87066 19.4185 8.08892 19.3686 7.29633C19.3187 6.50374 18.9682 5.76007 18.3886 5.21716C17.809 4.67424 17.0441 4.37303 16.2499 4.37501H15.3796C15.1361 3.88974 15.0063 3.35541 14.9999 2.81251C14.9999 2.156 15.1837 1.5126 15.5306 0.955198C15.5895 0.860561 15.622 0.751898 15.6247 0.64047C15.6275 0.529043 15.6004 0.418905 15.5463 0.321472C15.4921 0.224038 15.4129 0.142853 15.3169 0.086331C15.2208 0.0298089 15.1114 5.85909e-06 14.9999 1.05653e-05H3.4374C2.75959 -0.00184889 2.10404 0.241791 1.59197 0.685875C1.0799 1.12996 0.745962 1.74444 0.651902 2.41569C0.557842 3.08694 0.710026 3.76955 1.08031 4.33727C1.4506 4.905 2.01393 5.31944 2.66614 5.50395C2.9616 6.1283 3.11811 6.80931 3.1249 7.50001C3.12466 8.18989 2.97048 8.87103 2.67358 9.49376C2.16524 9.63448 1.70711 9.91621 1.35217 10.3064C0.997227 10.6966 0.759975 11.1792 0.667846 11.6986C0.575717 12.2179 0.632474 12.7528 0.831555 13.2412C1.03064 13.7297 1.36391 14.1518 1.79283 14.4588C1.28844 14.8622 0.922107 15.4127 0.744659 16.0337C0.567212 16.6548 0.587442 17.3157 0.802545 17.9247C1.01765 18.5338 1.41696 19.0608 1.94509 19.4327C2.47322 19.8045 3.10399 20.0028 3.7499 20H18.7499C18.8578 20 18.9639 19.9721 19.0579 19.9189C19.1518 19.8657 19.2303 19.7891 19.2859 19.6965C19.3414 19.604 19.372 19.4986 19.3747 19.3907C19.3774 19.2828 19.3521 19.1761 19.3013 19.0808C18.9393 18.4019 18.7499 17.6444 18.7499 16.875C18.7499 16.1056 18.9393 15.3481 19.3013 14.6692C19.3521 14.5739 19.3774 14.4672 19.3747 14.3592C19.372 14.2513 19.3413 14.1459 19.2858 14.0534ZM18.1249 7.50001C18.1243 7.99712 17.9266 8.47372 17.5751 8.82523C17.2236 9.17675 16.747 9.37446 16.2499 9.37501H4.07033C4.20403 8.9691 4.29392 8.55005 4.33846 8.12501H15.6249C15.7907 8.12501 15.9496 8.05916 16.0668 7.94195C16.184 7.82474 16.2499 7.66577 16.2499 7.50001C16.2499 7.33425 16.184 7.17528 16.0668 7.05807C15.9496 6.94086 15.7907 6.87501 15.6249 6.87501H4.33696C4.29364 6.44994 4.20435 6.03082 4.07064 5.62501H16.2499C16.747 5.62556 17.2236 5.82328 17.5751 6.17479C17.9266 6.5263 18.1243 7.0029 18.1249 7.50001ZM1.8749 2.81251C1.87539 2.39826 2.04017 2.00112 2.33309 1.7082C2.62601 1.41529 3.02315 1.25051 3.4374 1.25001H14.0133C13.9092 1.55437 13.8361 1.86846 13.7951 2.18751H4.3749C4.20913 2.18751 4.05016 2.25336 3.93295 2.37057C3.81574 2.48778 3.7499 2.64675 3.7499 2.81251C3.7499 2.97827 3.81574 3.13724 3.93295 3.25445C4.05016 3.37166 4.20913 3.43751 4.3749 3.43751H13.794C13.8348 3.75664 13.9081 4.07076 14.0127 4.37501H3.4374C3.02315 4.37451 2.62601 4.20973 2.33309 3.91682C2.04017 3.6239 1.87539 3.22676 1.8749 2.81251ZM3.4374 13.75C3.02299 13.75 2.62557 13.5854 2.33254 13.2924C2.03952 12.9993 1.8749 12.6019 1.8749 12.1875C1.8749 11.7731 2.03952 11.3757 2.33254 11.0827C2.62557 10.7896 3.02299 10.625 3.4374 10.625H15.2633C15.1592 10.9294 15.0861 11.2435 15.0451 11.5625H4.3749C4.20913 11.5625 4.05016 11.6284 3.93295 11.7456C3.81574 11.8628 3.7499 12.0218 3.7499 12.1875C3.7499 12.3533 3.81574 12.5122 3.93295 12.6295C4.05016 12.7467 4.20913 12.8125 4.3749 12.8125H15.044C15.0848 13.1316 15.1581 13.4458 15.2627 13.75H3.4374ZM3.7499 18.75C3.25261 18.75 2.7757 18.5525 2.42407 18.2008C2.07244 17.8492 1.8749 17.3723 1.8749 16.875C1.8749 16.3777 2.07244 15.9008 2.42407 15.5492C2.7757 15.1976 3.25261 15 3.7499 15H17.8041C17.6704 15.4058 17.5812 15.8249 17.5378 16.25H4.3749C4.20913 16.25 4.05016 16.3159 3.93295 16.4331C3.81574 16.5503 3.7499 16.7092 3.7499 16.875C3.7499 17.0408 3.81574 17.1997 3.93295 17.317C4.05016 17.4342 4.20913 17.5 4.3749 17.5H17.5363C17.5809 17.925 17.6708 18.3441 17.8045 18.75H3.7499Z" fill="black"/>
</g>
<defs>
<clipPath id="clip0_20_348">
<rect width="20" height="20" fill="white"/>
</clipPath>
</defs>
</svg>
