<svg width="25" height="25" viewBox="0 0 25 25" fill="none" xmlns="http://www.w3.org/2000/svg">
<g clip-path="url(#clip0_109_642)">
<path d="M20.1164 2.34731H19.2212V1.44148C19.2212 0.923927 18.8016 0.504395 18.2841 0.504395C17.7665 0.504395 17.347 0.923927 17.347 1.44148V2.34731H8.15295V1.44148C8.15295 0.923927 7.73342 0.504395 7.21587 0.504395C6.69832 0.504395 6.27879 0.923927 6.27879 1.44148V2.34731H5.38364C2.82864 2.34731 0.75 4.42595 0.75 6.9809V19.8601C0.75 22.4151 2.82864 24.4937 5.38364 24.4937H20.1164C22.6714 24.4937 24.75 22.4151 24.75 19.8601V6.9809C24.75 4.42595 22.6714 2.34731 20.1164 2.34731ZM5.38364 4.22147H6.27879V6.04879C6.27879 6.56634 6.69832 6.98587 7.21587 6.98587C7.73342 6.98587 8.15295 6.56634 8.15295 6.04879V4.22147H17.347V6.04879C17.347 6.56634 17.7666 6.98587 18.2841 6.98587C18.8017 6.98587 19.2212 6.56634 19.2212 6.04879V4.22147H20.1164C21.6379 4.22147 22.8758 5.45936 22.8758 6.9809V7.8761H2.62417V6.9809C2.62417 5.45936 3.86205 4.22147 5.38364 4.22147ZM20.1164 22.6195H5.38364C3.86205 22.6195 2.62417 21.3817 2.62417 19.8601V9.75026H22.8758V19.8601C22.8758 21.3817 21.6379 22.6195 20.1164 22.6195ZM9.07443 13.4361C9.07443 13.9537 8.6549 14.3732 8.13735 14.3732H6.29444C5.77689 14.3732 5.35735 13.9537 5.35735 13.4361C5.35735 12.9186 5.77689 12.4991 6.29444 12.4991H8.13735C8.65485 12.4991 9.07443 12.9186 9.07443 13.4361ZM20.1427 13.4361C20.1427 13.9537 19.7232 14.3732 19.2056 14.3732H17.3627C16.8451 14.3732 16.4256 13.9537 16.4256 13.4361C16.4256 12.9186 16.8451 12.4991 17.3627 12.4991H19.2056C19.7231 12.4991 20.1427 12.9186 20.1427 13.4361ZM14.6032 13.4361C14.6032 13.9537 14.1837 14.3732 13.6661 14.3732H11.8232C11.3057 14.3732 10.8861 13.9537 10.8861 13.4361C10.8861 12.9186 11.3057 12.4991 11.8232 12.4991H13.6661C14.1836 12.4991 14.6032 12.9186 14.6032 13.4361ZM9.07443 18.9649C9.07443 19.4825 8.6549 19.902 8.13735 19.902H6.29444C5.77689 19.902 5.35735 19.4825 5.35735 18.9649C5.35735 18.4474 5.77689 18.0278 6.29444 18.0278H8.13735C8.65485 18.0278 9.07443 18.4474 9.07443 18.9649ZM20.1427 18.9649C20.1427 19.4825 19.7232 19.902 19.2056 19.902H17.3627C16.8451 19.902 16.4256 19.4825 16.4256 18.9649C16.4256 18.4474 16.8451 18.0278 17.3627 18.0278H19.2056C19.7231 18.0278 20.1427 18.4474 20.1427 18.9649ZM14.6032 18.9649C14.6032 19.4825 14.1837 19.902 13.6661 19.902H11.8232C11.3057 19.902 10.8861 19.4825 10.8861 18.9649C10.8861 18.4474 11.3057 18.0278 11.8232 18.0278H13.6661C14.1836 18.0278 14.6032 18.4474 14.6032 18.9649Z" fill="#6255FA"/>
</g>
<defs>
<clipPath id="clip0_109_642">
<rect width="24" height="24" fill="white" transform="translate(0.75 0.5)"/>
</clipPath>
</defs>
</svg>
