<svg width="25" height="25" viewBox="0 0 25 25" fill="none" xmlns="http://www.w3.org/2000/svg">
<g clip-path="url(#clip0_109_661)">
<path d="M20.7344 13.0697H18.3851C18.0654 13.0697 17.7558 13.1134 17.4612 13.1938C16.88 12.0513 15.6935 11.2664 14.3263 11.2664H10.1737C8.80647 11.2664 7.61997 12.0513 7.03881 13.1938C6.7442 13.1134 6.43464 13.0697 6.11491 13.0697H3.76562C1.82711 13.0697 0.25 14.6468 0.25 16.5854V20.3409C0.25 21.504 1.19627 22.4503 2.35938 22.4503H22.1406C23.3037 22.4503 24.25 21.504 24.25 20.3409V16.5854C24.25 14.6468 22.6729 13.0697 20.7344 13.0697ZM6.65805 14.7821V21.0441H2.35938C1.97167 21.0441 1.65625 20.7286 1.65625 20.3409V16.5854C1.65625 15.4223 2.60252 14.476 3.76562 14.476H6.11491C6.30578 14.476 6.49061 14.502 6.66658 14.5497C6.66152 14.6266 6.65805 14.704 6.65805 14.7821ZM16.4357 21.0441H8.0643V14.782C8.0643 13.6189 9.01056 12.6727 10.1737 12.6727H14.3263C15.4894 12.6727 16.4357 13.6189 16.4357 14.782V21.0441ZM22.8438 20.3409C22.8438 20.7286 22.5283 21.0441 22.1406 21.0441H17.842V14.782C17.842 14.7039 17.8385 14.6265 17.8334 14.5497C18.0094 14.502 18.1942 14.476 18.3851 14.476H20.7344C21.8975 14.476 22.8438 15.4222 22.8438 16.5854V20.3409Z" fill="#6255FA"/>
<path d="M4.94019 6.42993C3.21758 6.42993 1.81616 7.83135 1.81616 9.55396C1.81612 11.2766 3.21758 12.678 4.94019 12.678C6.66276 12.678 8.06422 11.2766 8.06422 9.55396C8.06422 7.83135 6.6628 6.42993 4.94019 6.42993ZM4.94015 11.2717C3.99294 11.2717 3.22237 10.5012 3.22237 9.55396C3.22237 8.60676 3.99294 7.83618 4.94015 7.83618C5.88735 7.83618 6.65793 8.60676 6.65793 9.55396C6.65793 10.5012 5.88735 11.2717 4.94015 11.2717Z" fill="#6255FA"/>
<path d="M12.2501 2.5498C9.9487 2.5498 8.07642 4.42209 8.07642 6.72346C8.07642 9.02484 9.9487 10.8971 12.2501 10.8971C14.5514 10.8971 16.4237 9.02484 16.4237 6.72346C16.4237 4.42213 14.5514 2.5498 12.2501 2.5498ZM12.2501 9.49087C10.7241 9.49087 9.48267 8.24943 9.48267 6.72346C9.48267 5.19754 10.7241 3.95605 12.2501 3.95605C13.776 3.95605 15.0175 5.19749 15.0175 6.72346C15.0175 8.24943 13.776 9.49087 12.2501 9.49087Z" fill="#6255FA"/>
<path d="M19.5596 6.42993C17.837 6.42993 16.4355 7.83135 16.4355 9.55396C16.4356 11.2766 17.837 12.678 19.5596 12.678C21.2822 12.678 22.6836 11.2766 22.6836 9.55396C22.6836 7.83135 21.2822 6.42993 19.5596 6.42993ZM19.5596 11.2717C18.6124 11.2717 17.8418 10.5012 17.8418 9.55396C17.8418 8.60676 18.6124 7.83618 19.5596 7.83618C20.5068 7.83618 21.2774 8.60676 21.2774 9.55396C21.2774 10.5012 20.5068 11.2717 19.5596 11.2717Z" fill="#6255FA"/>
</g>
<defs>
<clipPath id="clip0_109_661">
<rect width="24" height="24" fill="white" transform="translate(0.25 0.5)"/>
</clipPath>
</defs>
</svg>
