<svg width="40" height="41" viewBox="0 0 40 41" fill="none" xmlns="http://www.w3.org/2000/svg">
<path d="M34.2258 21.853H31.1323C31.4476 22.7163 31.6199 23.648 31.6199 24.619V36.3104C31.6199 36.7152 31.5494 37.1038 31.4212 37.4652H36.5354C38.4458 37.4652 39.9999 35.911 39.9999 34.0007V27.6272C40 24.4433 37.4097 21.853 34.2258 21.853Z" fill="#6255FA"/>
<path d="M8.38009 24.619C8.38009 23.6479 8.55236 22.7163 8.86767 21.853H5.77423C2.59032 21.853 0 24.4433 0 27.6273V34.0008C0 35.9111 1.55414 37.4653 3.46454 37.4653H8.57877C8.45056 37.1038 8.38009 36.7152 8.38009 36.3104V24.619Z" fill="#6255FA"/>
<path d="M23.536 18.8447H16.4639C13.28 18.8447 10.6897 21.435 10.6897 24.619V36.3104C10.6897 36.9481 11.2067 37.4652 11.8445 37.4652H28.1554C28.7932 37.4652 29.3102 36.9482 29.3102 36.3104V24.619C29.3102 21.435 26.7199 18.8447 23.536 18.8447Z" fill="#6255FA"/>
<path d="M20.0001 3.53418C16.1711 3.53418 13.0559 6.64934 13.0559 10.4785C13.0559 13.0758 14.4894 15.3441 16.6065 16.5351C17.6106 17.0999 18.7683 17.4227 20.0001 17.4227C21.232 17.4227 22.3897 17.0999 23.3938 16.5351C25.5109 15.3441 26.9444 13.0757 26.9444 10.4785C26.9444 6.64942 23.8292 3.53418 20.0001 3.53418Z" fill="#6255FA"/>
<path d="M7.80616 10.0068C4.94248 10.0068 2.61279 12.3365 2.61279 15.2002C2.61279 18.0639 4.94248 20.3936 7.80616 20.3936C8.53257 20.3936 9.22429 20.2431 9.85265 19.9726C10.9391 19.5049 11.8348 18.6769 12.3891 17.6398C12.7782 16.9119 12.9995 16.0815 12.9995 15.2002C12.9995 12.3366 10.6698 10.0068 7.80616 10.0068Z" fill="#6255FA"/>
<path d="M32.1939 10.0068C29.3302 10.0068 27.0005 12.3365 27.0005 15.2002C27.0005 16.0816 27.2218 16.912 27.6109 17.6398C28.1652 18.677 29.061 19.505 30.1474 19.9726C30.7757 20.2431 31.4675 20.3936 32.1939 20.3936C35.0575 20.3936 37.3872 18.0639 37.3872 15.2002C37.3872 12.3365 35.0575 10.0068 32.1939 10.0068Z" fill="#6255FA"/>
</svg>
