<svg width="49" height="42" viewBox="0 0 49 42" fill="none" xmlns="http://www.w3.org/2000/svg">
<path d="M30.7605 30.6469C28.7535 32.3723 26.1449 33.4141 23.293 33.4141C16.9656 33.4141 11.8359 28.2844 11.8359 21.957C11.8359 15.6297 16.9656 10.5 23.293 10.5V21.957L30.7605 30.6469Z" fill="#556987"/>
<path d="M30.5665 30.4526C29.3306 31.5108 27.8677 32.2929 26.3009 32.7304C24.7915 33.1515 23.1892 33.2554 21.6388 33.0202C20.288 32.8151 18.981 32.3694 17.7915 31.6968C16.6321 31.0405 15.5986 30.1819 14.74 29.1647C13.8814 28.1503 13.2032 26.9745 12.7575 25.7222C12.29 24.4097 12.0739 23.0206 12.1122 21.6288C12.1505 20.2562 12.4431 18.8944 12.9736 17.6257C13.4876 16.3979 14.2314 15.2604 15.1446 14.2925C16.0634 13.319 17.1489 12.5124 18.3493 11.919C19.5607 11.3175 20.8923 10.9429 22.2376 10.8198C22.5876 10.787 22.9376 10.7733 23.2876 10.7733C23.1974 10.6831 23.1044 10.5901 23.0142 10.4999V11.6429V14.3854V17.7159V20.5733C23.0142 21.0272 22.995 21.4866 23.0142 21.9433C23.0196 22.0882 23.1154 22.1784 23.2029 22.2796C23.356 22.4573 23.5091 22.6378 23.6622 22.8155C24.2282 23.4745 24.7915 24.1308 25.3575 24.7897C26.0739 25.6237 26.7904 26.4577 27.5095 27.2917C28.1575 28.0437 28.8029 28.7983 29.4509 29.5503C29.8036 29.9632 30.1591 30.3733 30.5118 30.7862C30.5282 30.8054 30.5447 30.8245 30.5611 30.8437C30.6568 30.9558 30.8482 30.9421 30.9466 30.8437C31.0587 30.7315 31.0423 30.5702 30.9466 30.4581C30.6978 30.1683 30.4489 29.8812 30.2029 29.5913C29.6095 28.9022 29.0161 28.2104 28.4228 27.5214C27.7036 26.6819 26.9818 25.8452 26.2626 25.0058C25.6419 24.2839 25.0212 23.562 24.4005 22.8401C24.1954 22.6022 23.9904 22.3616 23.7853 22.1237C23.6896 22.0116 23.5966 21.8886 23.4927 21.7847C23.4872 21.7792 23.4845 21.7737 23.479 21.771C23.5064 21.8366 23.5337 21.8995 23.5583 21.9651C23.5583 21.5851 23.5583 21.2022 23.5583 20.8222C23.5583 19.9116 23.5583 19.0011 23.5583 18.0905C23.5583 16.9858 23.5583 15.8812 23.5583 14.7737C23.5583 13.8222 23.5583 12.8706 23.5583 11.919C23.5583 11.4569 23.5747 10.9894 23.5583 10.5245C23.5583 10.519 23.5583 10.5108 23.5583 10.5054C23.5583 10.3577 23.4325 10.2319 23.2849 10.2319C21.8411 10.2347 20.3946 10.4972 19.0466 11.0222C17.7286 11.5362 16.5118 12.2827 15.4564 13.2261C14.4337 14.1421 13.5614 15.2577 12.9161 16.4827C12.2435 17.7597 11.8142 19.1515 11.6446 20.5843C11.4724 22.0362 11.5763 23.5237 11.9454 24.9374C12.3009 26.2937 12.9052 27.5897 13.7173 28.7327C14.5321 29.8784 15.5466 30.8737 16.7087 31.664C17.8681 32.4542 19.1779 33.0339 20.545 33.362C22.09 33.7312 23.7005 33.7804 25.2646 33.5206C26.9489 33.239 28.5704 32.5745 29.9732 31.6011C30.3122 31.3632 30.6404 31.1089 30.9548 30.8409C31.0669 30.7452 31.0532 30.5538 30.9548 30.4554C30.8427 30.3433 30.6786 30.3569 30.5665 30.4526Z" fill="#556987"/>
<path d="M36.6643 20.043H25.2073V8.58594C31.5346 8.58594 36.6643 13.7156 36.6643 20.043Z" fill="#556987"/>
<path d="M36.6643 19.7695C36.2842 19.7695 35.9014 19.7695 35.5213 19.7695C34.6108 19.7695 33.7002 19.7695 32.7897 19.7695C31.685 19.7695 30.5803 19.7695 29.4729 19.7695C28.5213 19.7695 27.5697 19.7695 26.6182 19.7695C26.3037 19.7695 25.9893 19.7695 25.6721 19.7695C25.5244 19.7695 25.3713 19.7559 25.2236 19.7695C25.2182 19.7695 25.21 19.7695 25.2045 19.7695C25.2947 19.8598 25.3877 19.9527 25.4779 20.043C25.4779 19.6629 25.4779 19.2801 25.4779 18.9C25.4779 17.9895 25.4779 17.0789 25.4779 16.1684C25.4779 15.0637 25.4779 13.959 25.4779 12.8516C25.4779 11.9 25.4779 10.9484 25.4779 9.99688C25.4779 9.68242 25.4779 9.36797 25.4779 9.05078C25.4779 8.90313 25.4916 8.75 25.4779 8.60234C25.4779 8.59688 25.4779 8.58867 25.4779 8.5832C25.3877 8.67344 25.2947 8.76641 25.2045 8.85664C27.5315 8.85938 29.8092 9.58672 31.7041 10.9375C33.5225 12.2336 34.9416 14.0902 35.7072 16.1875C36.1584 17.4234 36.3854 18.725 36.3881 20.0402C36.3881 20.393 36.935 20.393 36.935 20.0402C36.9322 17.6258 36.183 15.2332 34.7803 13.2645C33.4049 11.3313 31.4635 9.84375 29.2377 9.02344C27.9526 8.55039 26.5799 8.31523 25.2072 8.3125C25.0596 8.3125 24.9338 8.43828 24.9338 8.58594V9.72891V12.4605V15.7773V18.632C24.9338 19.0941 24.9174 19.5617 24.9338 20.0266V20.0457C24.9338 20.1934 25.0596 20.3191 25.2072 20.3191H26.3502H29.0819H32.3987H35.2533C35.7154 20.3191 36.183 20.3355 36.6479 20.3191H36.667C37.017 20.3164 37.017 19.7695 36.6643 19.7695Z" fill="#556987"/>
<path d="M34.75 21.957C34.75 24.675 33.8039 27.1715 32.2234 29.1348L26.0547 21.957H34.75Z" fill="#556987"/>
<path d="M34.4766 21.9567C34.4739 23.9392 33.9489 25.897 32.9453 27.6087C32.6719 28.0735 32.3684 28.5192 32.0293 28.9403H32.4149C32.2098 28.7024 32.0047 28.4646 31.8024 28.2267C31.3102 27.6552 30.8207 27.0837 30.3285 26.5122C29.7352 25.8204 29.1418 25.1286 28.5457 24.4396C28.0317 23.8407 27.5176 23.2446 27.0063 22.6458C26.8367 22.4489 26.6699 22.2521 26.5004 22.0579C26.4211 21.9649 26.3446 21.861 26.2571 21.7763C26.2543 21.7735 26.2489 21.7681 26.2461 21.7653C26.1805 21.9212 26.1176 22.0771 26.052 22.2329H28.986H33.6672H34.7446C35.0973 22.2329 35.0973 21.686 34.7446 21.686C33.7657 21.686 32.7867 21.686 31.8106 21.686C30.2492 21.686 28.6907 21.686 27.1293 21.686C26.7711 21.686 26.4102 21.686 26.052 21.686C25.8004 21.686 25.7102 21.9786 25.8578 22.1536C26.0629 22.3915 26.268 22.6294 26.4703 22.8673C26.9625 23.4388 27.452 24.0103 27.9442 24.5817C28.5375 25.2735 29.1309 25.9653 29.727 26.6544C30.241 27.2532 30.7551 27.8493 31.2664 28.4481C31.5153 28.7353 31.7504 29.047 32.0157 29.3204L32.0266 29.3313C32.1168 29.4353 32.3246 29.4407 32.4121 29.3313C33.6946 27.7317 34.5641 25.8204 34.8758 23.7888C34.9688 23.1845 35.018 22.572 35.018 21.9595C35.0235 21.604 34.4766 21.604 34.4766 21.9567Z" fill="#556987"/>
</svg>
