<svg width="56" height="55" viewBox="0 0 56 55" fill="none" xmlns="http://www.w3.org/2000/svg">
<path d="M28 47.5C39.0457 47.5 48 38.5457 48 27.5C48 16.4543 39.0457 7.5 28 7.5C16.9543 7.5 8 16.4543 8 27.5C8 38.5457 16.9543 47.5 28 47.5Z" fill="white"/>
<path d="M47.9993 27.6615L42.7039 22.3662L40.2727 23.9559L28 11.6831L25.2618 26.8513L13.2959 22.3662L24.056 33.1263L18.9124 39.6519L26.7203 47.4598C27.1434 47.4865 27.5701 47.5001 28 47.5001C38.9918 47.5001 47.9125 38.6329 47.9993 27.6615Z" fill="#D1D1D1"/>
<path d="M28 11.6831L32.5438 20.8898L42.704 22.3662L35.352 29.5326L37.0875 39.6519L28 34.8742L18.9124 39.6519L20.6479 29.5326L13.2959 22.3662L23.4561 20.8898L28 11.6831Z" fill="#2335C1"/>
<path d="M28 34.8771V34.8742L37.0876 39.6519L35.352 29.5326L42.7041 22.3662L32.5438 20.8898L28 11.6831V34.8771Z" fill="#2335C1"/>
<path d="M28 11.6831V26.1865L42.7041 22.3662L32.5438 20.8898L28 11.6831Z" fill="#6255FA"/>
<path d="M37.0875 39.6519L27.9999 26.1865L18.9124 39.6519L27.9999 34.8743L37.0875 39.6519Z" fill="#9E96FF"/>
<path d="M37.0876 39.6519L28 26.1865V26.1946V34.8771V34.8743L37.0876 39.6519Z" fill="#6255FA"/>
<path d="M23.4561 20.8898L13.2959 22.3662L28 26.1865V11.6831" fill="#9E96FF"/>
<path d="M41.5255 4.07295C54.4639 11.5429 58.8969 28.0872 51.4269 41.0255C43.957 53.9639 27.4127 58.3969 14.4744 50.927C1.53599 43.457 -2.89703 26.9127 4.57295 13.9744C12.0429 1.03599 28.5872 -3.39702 41.5255 4.07295ZM18.6914 43.6228C27.5958 48.7638 38.9819 45.7129 44.1228 36.8085C49.2638 27.9041 46.2129 16.518 37.3085 11.3771C28.4041 6.23608 17.018 9.28697 11.8771 18.1914C6.73608 27.0958 9.78696 38.4819 18.6914 43.6228Z" fill="white" fill-opacity="0.12"/>
</svg>
