<svg width="44" height="44" viewBox="0 0 44 44" fill="none" xmlns="http://www.w3.org/2000/svg">
<g clip-path="url(#clip0_533_1045)">
<path d="M42.6697 11.159C41.5147 6.90766 37.0932 2.48531 32.841 1.33031C30.2337 0.680625 26.7412 0.0111719 22 0C17.2588 0.0111719 13.7663 0.680625 11.159 1.33031C6.90766 2.48531 2.48531 6.9068 1.33031 11.159C0.680625 13.7663 0.0111719 17.2588 0 22C0.0111719 26.7412 0.680625 30.2337 1.33031 32.841C2.48531 37.0932 6.90766 41.5147 11.159 42.6697C13.7663 43.3194 17.2605 43.9888 22 44C26.7403 43.9888 30.2337 43.3194 32.841 42.6697C37.0932 41.5147 41.5147 37.0932 42.6697 32.841C43.3194 30.2337 43.9888 26.7395 44 22C43.9888 17.2588 43.3194 13.7663 42.6697 11.159Z" fill="#6255FA" fill-opacity="0.1"/>
<path d="M22.3971 36.6032C20.1266 36.6599 15.6648 36.3076 14.2064 35.9604C13.2121 35.7507 12.278 35.1723 11.5741 34.3671C10.8787 33.5825 10.4415 32.6029 10.322 31.5612V31.5303C10.2458 30.7792 10.2223 30.0237 10.2516 29.2693C10.2516 29.2693 10.1957 28.6033 10.322 27.395C10.322 27.3847 10.322 27.3752 10.322 27.3649C10.4277 26.3732 10.8713 25.448 11.5784 24.7447C12.2885 24.0333 13.2196 23.5847 14.2184 23.4728C15.6794 23.3181 20.1327 23.233 22.3954 23.2339C24.6581 23.2348 28.289 23.3198 29.7516 23.4728C30.7505 23.5847 31.6816 24.0333 32.3916 24.7447C33.0986 25.4486 33.5424 26.3739 33.6489 27.3658V27.3967C33.7217 28.018 33.7581 28.6429 33.758 29.2684C33.7624 30.0246 33.7263 30.7805 33.6498 31.5329V31.5638C33.5312 32.6071 33.0944 33.5885 32.3985 34.3748C31.6938 35.1801 30.7597 35.7584 29.7654 35.9673C28.3062 36.2938 24.6641 36.6187 22.3971 36.6032Z" fill="#6255FA"/>
<path d="M21.8523 21.5342C25.758 21.5342 28.9241 18.3681 28.9241 14.4624C28.9241 10.5568 25.758 7.39062 21.8523 7.39062C17.9467 7.39062 14.7805 10.5568 14.7805 14.4624C14.7805 18.3681 17.9467 21.5342 21.8523 21.5342Z" fill="#6255FA"/>
</g>
<defs>
<clipPath id="clip0_533_1045">
<rect width="44" height="44" fill="white"/>
</clipPath>
</defs>
</svg>
