<svg width="12" height="13" viewBox="0 0 12 13" fill="none" xmlns="http://www.w3.org/2000/svg">
<path d="M11.7047 5.78736L6.71315 0.795758C6.31946 0.402065 5.68095 0.402065 5.28725 0.795758C4.89356 1.18945 4.89356 1.82796 5.28725 2.22165L9.56543 6.49981L5.28725 10.7779C4.89356 11.1716 4.89356 11.8101 5.28725 12.2038C5.68095 12.5975 6.31946 12.5975 6.71315 12.2038L11.7047 7.21225C12.0984 6.81954 12.0984 6.18105 11.7047 5.78736ZM5.70293 5.48509L1.74004 1.30837C1.34183 0.889206 0.696855 0.889206 0.298652 1.30837C-0.0995506 1.72753 -0.0995506 2.40751 0.298652 2.82718L3.54111 6.2445L0.298652 9.66182C-0.0995506 10.081 -0.0995506 10.7615 0.298652 11.1806C0.696855 11.5998 1.34183 11.5998 1.74004 11.1806L5.70293 7.00391C6.10113 6.58474 6.10113 5.90477 5.70293 5.48509Z" fill="white"/>
</svg>
