<svg width="48" height="42" viewBox="0 0 48 42" fill="none" xmlns="http://www.w3.org/2000/svg">
<g clip-path="url(#clip0_533_1252)">
<path d="M23.9819 7.60791L11.4207 20.1691L11.6972 22.1973L13.8637 22.7505L14.9239 33.537H20.4094L21.5618 25.5163H27.1394L28.4301 34.3667L32.1639 34.6433L34.607 32.0619V22.7505L37.3036 20.9297L23.9819 7.60791Z" fill="white"/>
<path d="M37.3 19.124C37.2992 19.1233 37.2985 19.1225 37.2979 19.1219L25.8761 7.70047C25.3892 7.21341 24.742 6.94531 24.0535 6.94531C23.365 6.94531 22.7177 7.21341 22.2306 7.70047L10.8148 19.1161C10.8109 19.1199 10.8069 19.124 10.8033 19.1278C9.8035 20.1334 9.8052 21.7648 10.8082 22.7678C11.2664 23.2262 11.8714 23.4915 12.5184 23.5195C12.5449 23.5221 12.5714 23.5233 12.5981 23.5233H13.0531V31.9286C13.0531 33.5921 14.4067 34.9454 16.0701 34.9454H20.5387C20.9918 34.9454 21.359 34.5779 21.359 34.1251V27.5352C21.359 26.7762 21.9766 26.1588 22.7356 26.1588H25.3713C26.1303 26.1588 26.7477 26.7762 26.7477 27.5352V34.1251C26.7477 34.5779 27.1149 34.9454 27.568 34.9454H32.0366C33.7003 34.9454 35.0536 33.5921 35.0536 31.9286V23.5233H35.4757C36.164 23.5233 36.8113 23.2553 37.2985 22.768C38.3026 21.7635 38.303 20.1291 37.3 19.124ZM36.1384 21.608C35.9613 21.7851 35.7258 21.8827 35.4757 21.8827H34.2333C33.7802 21.8827 33.4129 22.2499 33.4129 22.703V31.9286C33.4129 32.6874 32.7956 33.3047 32.0366 33.3047H28.3883V27.5352C28.3883 25.8717 27.035 24.5182 25.3713 24.5182H22.7356C21.0719 24.5182 19.7184 25.8717 19.7184 27.5352V33.3047H16.0701C15.3113 33.3047 14.6938 32.6874 14.6938 31.9286V22.703C14.6938 22.2499 14.3265 21.8827 13.8734 21.8827H12.6524C12.6396 21.8819 12.627 21.8812 12.6139 21.881C12.3695 21.8767 12.1403 21.7798 11.9686 21.6078C11.6033 21.2425 11.6033 20.648 11.9686 20.2825C11.9688 20.2825 11.9688 20.2823 11.969 20.282L11.9696 20.2814L23.391 8.86045C23.5679 8.68335 23.8031 8.58594 24.0535 8.58594C24.3036 8.58594 24.5388 8.68335 24.7159 8.86045L36.1347 20.279C36.1364 20.2808 36.1384 20.2825 36.1401 20.2842C36.5034 20.6501 36.5028 21.2433 36.1384 21.608Z" fill="white"/>
</g>
<defs>
<clipPath id="clip0_533_1252">
<rect width="28" height="28" fill="white" transform="translate(10 7)"/>
</clipPath>
</defs>
</svg>
