<svg width="24" height="24" viewBox="0 0 24 24" fill="none" xmlns="http://www.w3.org/2000/svg">
<g clip-path="url(#clip0_472_5028)">
<path d="M22.5938 11.4947V8.66518C22.5938 7.27505 21.4876 6.13904 20.1094 6.08945V4.35268C20.1094 3.44804 19.3734 2.71206 18.4688 2.71206H13.952L13.3687 1.09079C13.22 0.677353 12.9189 0.346978 12.5211 0.160556C12.1232 -0.0259128 11.6767 -0.0457878 11.2638 0.104493L3.0675 3.08766C2.65509 3.23776 2.32608 3.53959 2.14102 3.93756C1.95595 4.33552 1.93716 4.78163 2.08814 5.19376L2.41744 6.09259C1.07048 6.17588 0 7.2976 0 8.66518V21.4152C0 22.8368 1.15655 23.9933 2.57812 23.9933H20.0156C21.4372 23.9933 22.5938 22.8368 22.5938 21.4152V18.4919C23.3877 18.3778 24 17.6933 24 16.8683V13.1183C24 12.2933 23.3877 11.6088 22.5938 11.4947ZM22.5938 16.8683C22.5938 16.9975 22.4886 17.1027 22.3594 17.1027H18.6094C17.4463 17.1027 16.5 16.1564 16.5 14.9933C16.5 13.8302 17.4463 12.8839 18.6094 12.8839H22.3594C22.4886 12.8839 22.5938 12.9891 22.5938 13.1183V16.8683ZM3.40856 4.71001C3.37945 4.63056 3.40078 4.56348 3.41611 4.53052C3.43144 4.49762 3.46898 4.43804 3.54848 4.40912L11.7448 1.42595C11.8244 1.39702 11.8914 1.41854 11.9244 1.43396C11.9573 1.44938 12.0168 1.48717 12.0455 1.56685L12.4575 2.7121H12.1406C11.236 2.7121 10.5 3.44809 10.5 4.35273V6.0871H3.91308L3.40856 4.71001ZM18.7031 4.35268V6.08706H11.9062V4.35268C11.9062 4.22345 12.0114 4.11831 12.1406 4.11831H18.4688C18.598 4.11831 18.7031 4.22345 18.7031 4.35268ZM20.0156 22.5871H2.57812C1.93195 22.5871 1.40625 22.0613 1.40625 21.4152V8.66518C1.40625 8.01901 1.93195 7.49331 2.57812 7.49331H20.0156C20.6618 7.49331 21.1875 8.01901 21.1875 8.66518V11.4777H18.6094C16.6709 11.4777 15.0938 13.0548 15.0938 14.9933C15.0938 16.9318 16.6709 18.5089 18.6094 18.5089H21.1875V21.4152C21.1875 22.0613 20.6618 22.5871 20.0156 22.5871Z" fill="black"/>
<path d="M18.6094 15.6975C18.9977 15.6975 19.3125 15.3827 19.3125 14.9944C19.3125 14.6061 18.9977 14.2913 18.6094 14.2913C18.221 14.2913 17.9062 14.6061 17.9062 14.9944C17.9062 15.3827 18.221 15.6975 18.6094 15.6975Z" fill="black"/>
</g>
<defs>
<clipPath id="clip0_472_5028">
<rect width="24" height="24" fill="white"/>
</clipPath>
</defs>
</svg>
