<svg width="295" height="295" viewBox="0 0 295 295" fill="none" xmlns="http://www.w3.org/2000/svg">
<path d="M211.263 56.7861L62.3186 78.4037L26.5425 164.899L91.3289 254.777L243.146 239.255L268.457 142.138L211.263 56.7861Z" fill="#FFEADC"/>
<path d="M80.2534 93.2732H38.9047C37.5011 93.2732 36.3633 94.411 36.3633 95.8146C36.3633 97.2182 37.5011 98.356 38.9047 98.356H80.2534C81.657 98.356 82.7948 97.2182 82.7948 95.8146C82.7948 94.411 81.657 93.2732 80.2534 93.2732Z" fill="black" stroke="black" stroke-width="0.761135" stroke-miterlimit="10"/>
<path d="M256.268 226.429H211.225C209.821 226.429 208.683 227.567 208.683 228.97C208.683 230.374 209.821 231.512 211.225 231.512H256.268C257.672 231.512 258.809 230.374 258.809 228.97C258.809 227.567 257.672 226.429 256.268 226.429Z" fill="black" stroke="black" stroke-width="0.761135" stroke-miterlimit="10"/>
<path d="M252.576 82.5484C252.576 82.5484 251.442 69.8428 243.558 69.8428C236.195 69.8428 234.265 82.5484 237.363 82.5484C240.46 82.5484 239.513 75.2501 235.017 75.2501C230.522 75.2501 230.002 82.5484 230.002 82.5484H205.517M32.5767 230.271C32.5767 230.271 33.7493 217.891 41.3087 217.891C48.868 217.891 53.2975 230.271 46.7809 230.271C40.2644 230.271 42.5462 217.563 50.4301 217.563C57.7933 217.563 59.7226 230.268 56.6251 230.268C53.5276 230.268 54.4745 222.97 58.9703 222.97C63.4661 222.97 63.9853 230.268 63.9853 230.268H82.7945" stroke="black" stroke-width="1.37004" stroke-linecap="round" stroke-linejoin="round"/>
<path d="M183.027 187.856C184.4 187.856 185.514 186.743 185.514 185.369C185.514 183.996 184.4 182.882 183.027 182.882C181.653 182.882 180.54 183.996 180.54 185.369C180.54 186.743 181.653 187.856 183.027 187.856Z" fill="black" stroke="black" stroke-width="0.761135" stroke-miterlimit="10"/>
<path d="M248.374 244.461C248.909 244.461 249.343 244.027 249.343 243.492C249.343 242.956 248.909 242.522 248.374 242.522C247.839 242.522 247.405 242.956 247.405 243.492C247.405 244.027 247.839 244.461 248.374 244.461Z" fill="black" stroke="black" stroke-width="0.761135" stroke-miterlimit="10"/>
<path d="M238.381 183.851C238.916 183.851 239.35 183.418 239.35 182.882C239.35 182.347 238.916 181.913 238.381 181.913C237.846 181.913 237.412 182.347 237.412 182.882C237.412 183.418 237.846 183.851 238.381 183.851Z" fill="black" stroke="black" stroke-width="0.761135" stroke-miterlimit="10"/>
<path d="M46.7457 201.489C47.8512 201.489 48.7473 200.593 48.7473 199.488C48.7473 198.382 47.8512 197.486 46.7457 197.486C45.6403 197.486 44.7441 198.382 44.7441 199.488C44.7441 200.593 45.6403 201.489 46.7457 201.489Z" fill="black" stroke="black" stroke-width="0.761135" stroke-miterlimit="10"/>
<path d="M138.269 158.639C138.537 158.639 138.753 158.423 138.753 158.155C138.753 157.888 138.537 157.672 138.269 157.672C138.002 157.672 137.786 157.888 137.786 158.155C137.786 158.423 138.002 158.639 138.269 158.639Z" fill="black" stroke="black" stroke-width="0.761135" stroke-miterlimit="10"/>
<path d="M189.135 123.124C189.402 123.124 189.618 122.907 189.618 122.64C189.618 122.373 189.402 122.156 189.135 122.156C188.867 122.156 188.651 122.373 188.651 122.64C188.651 122.907 188.867 123.124 189.135 123.124Z" fill="black" stroke="black" stroke-width="0.761135" stroke-miterlimit="10"/>
<path d="M111.93 140.65C112.466 140.65 112.9 140.216 112.9 139.681C112.9 139.146 112.466 138.712 111.93 138.712C111.395 138.712 110.961 139.146 110.961 139.681C110.961 140.216 111.395 140.65 111.93 140.65Z" fill="black" stroke="black" stroke-width="0.761135" stroke-miterlimit="10"/>
<path d="M186.483 155.36C187.018 155.36 187.452 154.926 187.452 154.391C187.452 153.856 187.018 153.422 186.483 153.422C185.948 153.422 185.514 153.856 185.514 154.391C185.514 154.926 185.948 155.36 186.483 155.36Z" fill="black" stroke="black" stroke-width="0.761135" stroke-miterlimit="10"/>
<path d="M255.005 129.372C257.004 129.372 258.624 127.752 258.624 125.754C258.624 123.756 257.004 122.136 255.005 122.136C253.007 122.136 251.387 123.756 251.387 125.754C251.387 127.752 253.007 129.372 255.005 129.372Z" fill="black" stroke="black" stroke-width="0.761135" stroke-miterlimit="10"/>
<path d="M37.1256 148.776C39.637 148.776 41.673 146.74 41.673 144.228C41.673 141.717 39.637 139.681 37.1256 139.681C34.6141 139.681 32.5781 141.717 32.5781 144.228C32.5781 146.74 34.6141 148.776 37.1256 148.776Z" fill="black" stroke="black" stroke-width="0.761135" stroke-miterlimit="10"/>
<path d="M69.8162 79.1382C71.4413 79.1382 72.7588 77.8207 72.7588 76.1956C72.7588 74.5704 71.4413 73.2529 69.8162 73.2529C68.191 73.2529 66.8735 74.5704 66.8735 76.1956C66.8735 77.8207 68.191 79.1382 69.8162 79.1382Z" fill="black" stroke="black" stroke-width="0.761135" stroke-miterlimit="10"/>
<path d="M200.823 174.512H167.926V246.324H200.823V174.512Z" fill="#0143AE"/>
<path d="M200.823 174.512H167.926L186.157 196.24H219.055L200.823 174.512Z" fill="#0061FA"/>
<path d="M167.926 174.512H92.5239V246.324H167.926V174.512Z" fill="#0061FA"/>
<path d="M167.926 174.512H92.524L74.2915 196.24H149.694L167.926 174.512Z" fill="#127EFF"/>
<path d="M142.726 135.349C142.068 136.898 142.299 138.677 142.726 140.304C143.152 141.93 143.779 143.528 143.876 145.208C144.024 147.898 142.827 150.488 142.68 153.173C142.555 155.465 143.199 157.72 143.493 159.996C143.786 162.272 143.664 164.778 142.239 166.578M174.907 130.265C176.568 130.821 177.12 132.985 176.733 134.69C176.347 136.395 175.326 137.901 174.833 139.582C174.108 142.068 174.593 144.745 175.373 147.215C176.154 149.686 177.227 152.071 177.707 154.615C178.186 157.16 177.991 159.98 176.435 162.049M117.435 122.744C116.358 126.939 118.267 131.235 119.617 135.35C121.174 140.101 122.009 145.277 120.667 150.1C119.339 154.849 115.947 159.186 116.348 164.1" stroke="black" stroke-width="1.37004" stroke-linecap="round" stroke-linejoin="round"/>
<path d="M138.146 87.9971C138.146 82.5243 135.971 77.2756 132.102 73.4057C128.232 69.5359 122.983 67.3618 117.51 67.3618C112.037 67.3618 106.789 69.5359 102.919 73.4057C99.0491 77.2756 96.875 82.5243 96.875 87.9971C96.875 105.827 113.048 118.569 116.757 121.257L114.607 124.987H120.422L118.274 121.275C122.002 118.696 138.146 106.466 138.146 87.9971Z" fill="#FEB0A3"/>
<path d="M167.097 68.6052C167.048 62.5417 164.605 56.7431 160.301 52.4726C155.996 48.2022 150.178 45.8059 144.114 45.8059C138.05 45.8059 132.232 48.2022 127.928 52.4726C123.623 56.7431 121.18 62.5417 121.131 68.6052C121.131 88.4632 139.146 102.656 143.276 105.648L140.876 109.803H147.352L144.966 105.673C149.122 102.797 167.097 89.1741 167.097 68.6052Z" fill="#127EFF"/>
<path d="M196.784 90.3438C196.736 84.2803 194.293 78.4816 189.988 74.2112C185.683 69.9407 179.865 67.5444 173.802 67.5444C167.738 67.5444 161.92 69.9407 157.615 74.2112C153.31 78.4816 150.867 84.2803 150.819 90.3438C150.819 110.202 168.833 124.394 172.963 127.387L170.563 131.542H177.04L174.653 127.412C178.804 124.536 196.784 110.92 196.784 90.3438Z" fill="white"/>
<path d="M164.079 99.1864C164.032 93.5221 161.749 88.1057 157.727 84.1168C153.705 80.128 148.27 77.8899 142.605 77.8899C136.941 77.8899 131.505 80.128 127.483 84.1168C123.461 88.1057 121.178 93.5221 121.131 99.1864C121.131 117.74 137.963 131.001 141.821 133.796L139.579 137.678H145.627L143.396 133.816C147.28 131.128 164.079 118.404 164.079 99.1864Z" fill="#FF2B4A"/>
<path d="M116.398 121.136C116.725 120.978 117.082 120.896 117.445 120.896C117.807 120.896 118.165 120.978 118.491 121.136M141.283 133.899C142.199 133.752 143.136 133.794 144.035 134.023M172.23 127.531C173.171 127.337 174.137 127.288 175.093 127.384M196.494 122.747C199.43 122.13 202.661 124.27 203.237 127.214C203.814 130.158 201.633 133.361 198.683 133.895C197.607 134.089 196.402 133.933 195.598 133.193C194.795 132.452 194.59 131.039 195.364 130.268C195.942 129.692 196.901 129.62 197.644 129.958C198.388 130.296 198.923 130.98 199.273 131.718C199.644 132.505 199.82 133.37 199.787 134.24C199.754 135.11 199.513 135.959 199.084 136.717C198.654 137.474 198.049 138.117 197.319 138.592C196.59 139.067 195.757 139.359 194.89 139.445C194.005 139.532 192.861 139.174 192.786 138.283C192.738 137.693 193.24 137.165 193.818 137.036C194.396 136.908 194.998 137.104 195.492 137.412C197.329 138.551 197.904 141.122 197.203 143.165C196.503 145.208 194.784 146.758 192.907 147.826M160.582 140.367C158.862 140.683 157.217 141.588 156.192 143.007C155.167 144.426 154.835 146.372 155.518 147.984C156.201 149.596 157.962 150.738 159.7 150.525C161.437 150.313 162.915 148.625 162.731 146.886C162.69 146.506 162.527 146.078 162.162 145.969C161.867 145.88 161.563 146.031 161.314 146.205C159.343 147.578 159.129 150.853 160.905 152.471C162.681 154.089 165.92 153.571 167.1 151.481M100.005 148.932C101.564 148.774 103.176 148.621 104.671 149.094C106.165 149.568 107.525 150.838 107.593 152.404C107.638 153.475 107.053 154.53 106.166 155.135C105.716 155.428 105.21 155.627 104.681 155.72C104.151 155.813 103.608 155.797 103.085 155.674C102.39 155.527 101.701 155.17 101.33 154.564C100.958 153.958 101.008 153.067 101.569 152.627C102.129 152.188 102.97 152.332 103.657 152.575C105.591 153.248 107.507 154.629 107.864 156.645C108.24 158.778 106.623 160.905 104.594 161.66C102.564 162.415 100.275 162.057 98.2514 161.299M91.6699 137.585C93.3064 137.801 94.9708 137.613 96.5185 137.04C98.0662 136.466 99.4504 135.523 100.551 134.293C101.911 132.743 102.722 130.281 101.436 128.673C100.268 127.222 97.9726 127.269 96.297 128.083C95.7527 128.349 95.2203 128.7 94.9208 129.226C94.6214 129.753 94.6258 130.489 95.0683 130.906C95.7763 131.577 96.9268 131.039 97.7233 130.474C99.0435 129.537 100.378 128.54 101.238 127.172C102.098 125.803 102.418 123.969 101.606 122.567C100.426 120.522 97.4283 120.277 95.3087 121.311C94.5712 121.67 93.8131 122.331 93.9429 123.136C94.0904 124.086 95.3515 124.394 96.2926 124.186C98.449 123.711 100.092 121.531 99.9565 119.319C99.8208 117.106 97.9195 115.153 95.7218 114.948" stroke="black" stroke-width="1.37004" stroke-linecap="round" stroke-linejoin="round"/>
</svg>
