<svg width="297" height="296" viewBox="0 0 297 296" fill="none" xmlns="http://www.w3.org/2000/svg">
<path d="M247.256 233.758L266.525 124.861L173.116 46.5977L44.9277 90.3936L30.4756 186.291L88.284 249.05L247.256 233.758Z" fill="#FFEADC"/>
<path d="M40.0503 164.792C40.0503 164.792 41.0343 154.403 47.3767 154.403C53.719 154.403 57.4368 164.792 51.9693 164.792C46.5018 164.792 48.4168 154.13 55.032 154.13C61.2091 154.13 62.8231 164.792 60.2251 164.792C57.6271 164.792 58.4208 158.668 62.1946 158.668C65.9685 158.668 66.4037 164.792 66.4037 164.792H93.213" stroke="black" stroke-width="0.737653" stroke-linecap="round" stroke-linejoin="round"/>
<path d="M254.092 208.799H207.67C206.636 208.799 205.798 209.637 205.798 210.671V210.756C205.798 211.79 206.636 212.628 207.67 212.628H254.092C255.126 212.628 255.964 211.79 255.964 210.756V210.671C255.964 209.637 255.126 208.799 254.092 208.799Z" fill="black" stroke="black" stroke-width="0.737653" stroke-miterlimit="10"/>
<path d="M79.4157 217.583H45.3966C44.3626 217.583 43.5244 218.421 43.5244 219.455V219.54C43.5244 220.574 44.3626 221.412 45.3966 221.412H79.4157C80.4496 221.412 81.2878 220.574 81.2878 219.54V219.455C81.2878 218.421 80.4496 217.583 79.4157 217.583Z" fill="black" stroke="black" stroke-width="0.737653" stroke-miterlimit="10"/>
<path d="M250.148 179.25C250.148 179.25 249.231 168.973 242.855 168.973C236.899 168.973 235.345 179.25 237.847 179.25C240.349 179.25 239.587 173.348 235.95 173.348C232.313 173.348 231.893 179.25 231.893 179.25H210.975" stroke="black" stroke-width="0.737653" stroke-linecap="round" stroke-linejoin="round"/>
<path d="M76.3827 189.474C77.8583 189.474 79.0545 188.277 79.0545 186.802C79.0545 185.326 77.8583 184.13 76.3827 184.13C74.9071 184.13 73.7109 185.326 73.7109 186.802C73.7109 188.277 74.9071 189.474 76.3827 189.474Z" fill="black" stroke="black" stroke-width="0.737653" stroke-miterlimit="10"/>
<path d="M196.493 235.291C197.232 235.291 197.83 234.692 197.83 233.954C197.83 233.216 197.232 232.617 196.493 232.617C195.755 232.617 195.157 233.216 195.157 233.954C195.157 234.692 195.755 235.291 196.493 235.291Z" fill="black" stroke="black" stroke-width="0.737653" stroke-miterlimit="10"/>
<path d="M208.47 158.672C210.67 158.672 212.454 156.888 212.454 154.687C212.454 152.487 210.67 150.703 208.47 150.703C206.269 150.703 204.485 152.487 204.485 154.687C204.485 156.888 206.269 158.672 208.47 158.672Z" fill="black" stroke="black" stroke-width="0.737653" stroke-miterlimit="10"/>
<path d="M178.185 81.1211C179.07 82.1155 179.513 84.0938 179.513 84.0938L175.398 82.9564L178.185 81.1211ZM170.796 230.17L171.488 249.52C171.503 249.919 171.436 250.317 171.293 250.69C171.151 251.063 170.934 251.403 170.657 251.691C170.379 251.978 170.047 252.207 169.679 252.363C169.312 252.52 168.917 252.6 168.517 252.6H148.6C146.622 252.6 145.437 250.781 145.668 248.816C146.228 243.993 149.691 240.959 154.508 240.758L154.583 231.374L170.796 230.17Z" fill="black"/>
<path d="M145.672 248.816C145.657 248.938 145.648 249.061 145.646 249.184C145.927 249.567 146.297 249.877 146.723 250.087C147.15 250.297 147.621 250.402 148.096 250.392H169.026C169.493 250.395 169.955 250.296 170.379 250.1C170.803 249.905 171.179 249.618 171.48 249.26L170.797 230.17L154.587 231.374L154.512 240.758C149.695 240.959 146.233 243.995 145.672 248.816Z" fill="#FF2B4A"/>
<path d="M154.512 240.758C157.222 240.683 160.459 242.865 162.541 246.327M156.226 238.247C157.744 238.17 159.265 238.219 160.775 238.395M156.361 239.787C158.062 239.743 159.764 239.857 161.445 240.127M157.765 236.708C158.266 235.793 158.946 234.987 159.763 234.338C159.979 234.148 160.242 234.019 160.524 233.963C160.665 233.937 160.811 233.953 160.943 234.008C161.076 234.063 161.19 234.155 161.272 234.273C161.335 234.398 161.361 234.539 161.349 234.679C161.337 234.818 161.286 234.952 161.203 235.065C161.033 235.289 160.816 235.474 160.567 235.605C159.701 236.127 158.753 236.5 157.764 236.708C156.777 235.313 155.155 234.454 153.485 234.128C153.22 234.064 152.946 234.049 152.675 234.082C152.54 234.1 152.41 234.147 152.295 234.221C152.181 234.295 152.084 234.393 152.011 234.509C151.83 234.835 151.944 235.263 152.191 235.541C152.459 235.804 152.789 235.994 153.15 236.093C154.593 236.579 156.249 236.701 157.77 236.71" stroke="black" stroke-width="0.590123" stroke-linecap="round" stroke-linejoin="round"/>
<path d="M138.078 230.17L138.77 249.52C138.785 249.919 138.719 250.317 138.576 250.69C138.433 251.064 138.216 251.404 137.939 251.692C137.662 251.979 137.329 252.208 136.962 252.364C136.594 252.52 136.199 252.601 135.799 252.6H115.882C113.904 252.6 112.721 250.781 112.95 248.816C113.51 243.994 116.973 240.959 121.79 240.758L121.865 231.374L138.078 230.17Z" fill="black"/>
<path d="M112.954 248.816C112.939 248.938 112.93 249.061 112.927 249.184C113.209 249.567 113.579 249.877 114.006 250.087C114.432 250.297 114.904 250.402 115.379 250.392H136.308C136.775 250.395 137.237 250.296 137.661 250.1C138.085 249.905 138.461 249.618 138.761 249.26L138.078 230.17L121.869 231.374L121.794 240.758C116.977 240.959 113.514 243.995 112.954 248.816Z" fill="#FF2B4A"/>
<path d="M121.797 240.758C124.507 240.683 127.744 242.865 129.827 246.327M123.508 238.247C125.026 238.17 126.547 238.219 128.056 238.395M123.642 239.787C125.344 239.743 127.046 239.857 128.726 240.127M125.042 236.708C125.544 235.793 126.223 234.987 127.04 234.338C127.257 234.148 127.519 234.019 127.801 233.963C127.943 233.937 128.088 233.953 128.221 234.008C128.353 234.063 128.467 234.155 128.549 234.273C128.612 234.398 128.638 234.539 128.626 234.679C128.614 234.818 128.563 234.952 128.48 235.065C128.311 235.29 128.094 235.475 127.846 235.606C126.979 236.128 126.032 236.501 125.042 236.71C124.055 235.314 122.434 234.456 120.764 234.13C120.499 234.066 120.225 234.05 119.954 234.084C119.819 234.101 119.689 234.149 119.574 234.222C119.459 234.296 119.362 234.394 119.29 234.51C119.109 234.836 119.222 235.264 119.472 235.543C119.738 235.806 120.068 235.996 120.429 236.095C121.872 236.58 123.527 236.703 125.048 236.711" stroke="black" stroke-width="0.590123" stroke-linecap="round" stroke-linejoin="round"/>
<path d="M166.485 73.876L172.016 66.9657C172.016 66.9657 161.847 61.8021 159.639 61.4436C157.43 61.0851 153.233 62.165 152.882 60.8107C152.531 59.4564 155.34 58.7276 155.34 58.7276C153.81 58.2715 152.255 57.9054 150.682 57.6314C148.063 57.1726 150.83 47.707 150.83 47.707C150.83 47.707 154.28 48.0641 156.715 48.5421C159.149 49.0201 180.643 55.7194 183.652 57.0605C186.662 58.4015 192.752 60.8771 188.938 67.1663C185.124 73.4556 176.293 85.1651 176.293 85.1651L166.485 73.876Z" fill="#FEB0A3"/>
<path d="M174.793 68.2373L172.017 66.9656L171.204 67.9821L174.793 68.2373Z" fill="#FD8571"/>
<path d="M153.55 55.526C152.665 55.2223 151.742 55.0406 150.808 54.9861M153.55 53.0136C152.665 52.7093 151.742 52.5272 150.808 52.4722M153.55 50.4997C152.665 50.1952 151.742 50.0135 150.808 49.9597" stroke="black" stroke-width="0.737653" stroke-linecap="round" stroke-linejoin="round"/>
<path d="M168.738 70.9976C168.738 70.9976 164.165 77.2189 162.868 77.2189C161.571 77.2189 149.226 75.2641 149.226 75.2641C149.226 75.2641 146.258 79.0763 142.945 78.976C139.633 78.8757 135.653 74.9927 135.653 74.9927C135.653 74.9927 124.312 75.959 120.932 78.5128C115.58 82.5595 110.458 94.6718 109.258 101.83L119.361 102.231L167.62 101.438L167.534 95.616L179.511 84.0924C179.511 84.0924 175.865 82.5802 172.486 77.6689C169.859 73.8567 168.738 70.9976 168.738 70.9976Z" fill="white"/>
<path d="M167.574 98.3675C167.574 98.3675 167.835 120.325 168.738 131.164C169.641 142.003 172.953 231.123 172.953 231.123L150.573 232.226L143.648 151.436L140.738 232.226H118.256C118.256 232.226 116.35 189.872 116.651 179.545C116.952 169.218 117.554 116.418 117.554 116.418L127.291 94.0375L158.302 93.5359L167.574 98.3675Z" fill="#0061FA"/>
<path d="M166.397 118.953L131.338 117.213" stroke="white" stroke-width="0.590123" stroke-linecap="round" stroke-linejoin="round"/>
<path d="M143.314 147.79L140.948 118.945" stroke="white" stroke-width="0.590123" stroke-linecap="round" stroke-linejoin="round"/>
<path d="M137.435 118.944C137.525 123.455 137.687 128.011 138.986 132.326C139.176 132.96 139.4 133.604 139.813 134.122C140.226 134.639 140.87 135.021 141.529 134.96" stroke="white" stroke-width="0.590123" stroke-linecap="round" stroke-linejoin="round"/>
<path d="M130.308 112.432L154.257 113.268L154 101.74L130.308 100.755V112.432Z" stroke="white" stroke-width="0.590123" stroke-linecap="round" stroke-linejoin="round"/>
<path d="M156.909 91.9707C156.976 86.8342 157.357 81.7067 158.053 76.6171C158.06 76.5642 158.057 76.5104 158.044 76.4586C158.03 76.4069 158.007 76.3583 157.975 76.3157C157.943 76.2731 157.902 76.2372 157.856 76.2102C157.81 76.1832 157.759 76.1656 157.706 76.1583L154.165 75.6611C154.061 75.6468 153.954 75.6747 153.87 75.7386C153.786 75.8024 153.73 75.8971 153.715 76.0019C152.99 81.3188 152.596 86.6757 152.535 92.0415L156.909 91.9707Z" fill="#0061FA"/>
<path d="M154.462 98.9724C155.224 98.9724 155.841 98.3549 155.841 97.593C155.841 96.8312 155.224 96.2136 154.462 96.2136C153.7 96.2136 153.083 96.8312 153.083 97.593C153.083 98.3549 153.7 98.9724 154.462 98.9724Z" fill="black"/>
<path d="M154.696 92.0075L157.266 91.947V94.6026C157.266 94.7449 157.232 94.8852 157.167 95.0117C157.102 95.1382 157.008 95.2473 156.892 95.3299L155.711 96.1693C155.41 96.3817 155.17 96.6711 155.018 97.0073L154.413 98.3351L153.886 96.9306C153.786 96.6592 153.603 96.4256 153.364 96.2623L152.479 95.6633C152.355 95.5783 152.253 95.4637 152.184 95.3298C152.115 95.1959 152.08 95.0469 152.082 94.8962L152.137 92.0311L154.696 92.0075Z" stroke="black" stroke-width="0.590123" stroke-linejoin="round"/>
<path d="M128.995 91.345C128.928 86.2177 128.544 81.0995 127.846 76.0196C127.838 75.9666 127.841 75.9128 127.855 75.861C127.868 75.8093 127.892 75.7607 127.924 75.7181C127.956 75.6755 127.996 75.6396 128.042 75.6126C128.089 75.5856 128.14 75.568 128.192 75.5607L131.733 75.065C131.837 75.0528 131.941 75.0814 132.023 75.1448C132.106 75.2081 132.161 75.3013 132.176 75.4043C132.904 80.7117 133.3 86.0592 133.363 91.4158L128.995 91.345Z" fill="#0061FA"/>
<path d="M131.437 98.3455C132.198 98.3455 132.816 97.7279 132.816 96.9661C132.816 96.2043 132.198 95.5867 131.437 95.5867C130.675 95.5867 130.057 96.2043 130.057 96.9661C130.057 97.7279 130.675 98.3455 131.437 98.3455Z" fill="black"/>
<path d="M131.21 91.3805L128.64 91.3215V93.9859C128.639 94.1283 128.673 94.2685 128.739 94.3949C128.804 94.5213 128.899 94.63 129.016 94.7118L130.196 95.5512C130.497 95.7638 130.736 96.0531 130.888 96.3892L131.493 97.717L132.02 96.3125C132.12 96.0406 132.303 95.807 132.543 95.6442L133.428 95.0541C133.553 94.9689 133.655 94.8541 133.724 94.7199C133.793 94.5857 133.828 94.4364 133.825 94.2854L133.772 91.4219L131.21 91.3805Z" stroke="black" stroke-width="0.590123" stroke-linejoin="round"/>
<path d="M146.157 62.8848C146.051 63.5989 146.7 64.5564 148.223 63.0914C148.55 62.7742 148.681 62.3109 148.883 61.9111C149.086 61.5113 149.391 61.0968 149.834 60.995C150.083 60.9389 150.353 60.9861 150.589 60.8873C150.99 60.7176 151.117 60.1953 151.04 59.766C150.964 59.3367 150.745 58.9443 150.667 58.5164C150.478 57.5014 151.088 56.5292 151.616 55.6426C152.144 54.7559 152.626 53.6627 152.194 52.7244C151.89 52.0664 151.192 51.643 150.936 50.9644C150.546 49.9316 151.304 48.7101 150.838 47.7187C150.474 46.9412 149.51 46.6491 148.649 46.6358C147.787 46.6225 146.912 46.7951 146.08 46.5812C145.04 46.3127 144.841 44.0053 142.948 43.2411C140.918 42.4223 138.783 44.6205 137.211 44.7371C136.497 44.7887 135.883 44.3329 135.187 44.1971C134.334 44.0319 133.486 44.7061 133.211 45.5249C132.937 46.3437 133.112 47.2554 133.416 48.0683C133.894 49.3133 134.649 50.4327 135.625 51.3414C136.601 52.2501 137.772 52.9239 139.048 53.3116" fill="black"/>
<path d="M135.653 74.9869C135.653 74.9869 139.636 78.8759 142.945 78.9703C146.012 79.0632 148.784 75.8028 149.177 75.3204L147.963 75.1566C147.328 74.894 146.909 73.7846 146.909 73.0912L146.287 59.0507L138.637 58.0312L137.391 73.8023C137.383 74.0415 137.297 74.2717 137.147 74.4579C136.996 74.6442 136.789 74.7766 136.557 74.835L135.454 75.0002L135.653 74.9869Z" fill="#FEB0A3"/>
<path d="M137.8 68.5397C139.622 68.4793 142.168 67.212 142.168 67.212L142.344 62.7005L138.275 62.522L137.8 68.5397Z" fill="#FD8571"/>
<path d="M142.383 63.4101C141.149 64.0799 132.565 66.9509 133.802 59.1952C135.038 51.4395 135.812 50.2297 135.812 50.2297C135.812 50.2297 136.788 51.5014 138.868 51.6342C140.948 51.767 144.2 50.4968 144.2 50.4968L144.756 53.6451C144.756 53.6451 147.776 51.5678 149.011 53.7085C150.245 55.8492 149.075 59.3294 146.15 59.5965L142.383 63.4101Z" fill="#FEB0A3"/>
<path d="M146.435 54.0788C146.817 53.9647 147.227 53.9917 147.591 54.1549C147.955 54.3181 148.249 54.6066 148.418 54.9679C148.587 55.3292 148.621 55.7393 148.513 56.1233C148.405 56.5074 148.163 56.84 147.83 57.0604" stroke="black" stroke-width="0.737653" stroke-linecap="round" stroke-linejoin="round"/>
<path d="M138.496 55.1809L138.44 59.4667L135.653 59.6304L138.496 55.1809Z" fill="#FF2B4A" stroke="#FF2B4A" stroke-width="0.737653" stroke-linecap="round" stroke-linejoin="round"/>
<path d="M141.076 60.6055L139.772 61.4435M140.002 55.7178C140.358 55.675 140.717 55.675 141.072 55.7178M135.402 55.7016C135.567 55.6581 135.74 55.6581 135.904 55.7016" stroke="black" stroke-width="0.737653" stroke-linecap="round" stroke-linejoin="round"/>
<path d="M128.844 92.0611L112.954 95.6218C112.352 95.7566 111.974 96.3539 112.108 96.9558L117.168 119.533C117.302 120.135 117.9 120.514 118.501 120.379L134.392 116.818C134.994 116.683 135.372 116.086 135.237 115.484L130.178 92.9067C130.044 92.3048 129.446 91.9262 128.844 92.0611Z" fill="#FF2B4A"/>
<path d="M122.448 102.935C123.652 102.935 124.628 101.959 124.628 100.754C124.628 99.5502 123.652 98.574 122.448 98.574C121.243 98.574 120.267 99.5502 120.267 100.754C120.267 101.959 121.243 102.935 122.448 102.935Z" fill="white"/>
<path d="M113.621 103.714C113.621 103.714 106.662 107.479 106.834 112.371C107.044 118.084 114.075 118.961 116.88 118.652C118.795 118.459 120.698 118.163 122.582 117.766C124.373 117.371 124.188 115.723 122.877 115.497C122.877 115.497 125.92 115.54 125.92 113.883C125.92 112.604 124.466 112.454 124.466 112.454C124.466 112.454 128.021 112.159 127.803 110.546C127.561 108.757 124.615 109.267 124.615 109.267C124.615 109.267 125.954 108.757 125.745 107.562C125.495 106.132 120.802 106.65 118.343 106.381C116.096 106.137 114.121 106.007 114.121 106.007L113.621 103.714Z" fill="#FEB0A3"/>
<path d="M123.914 109.211C121.424 109.525 118.886 109.519 116.39 109.359C116.105 109.341 116.107 109.783 116.39 109.801C118.898 109.96 121.43 109.966 123.914 109.654C124.193 109.62 124.197 109.176 123.914 109.211ZM123.809 112.249C121.49 112.444 119.161 112.48 116.837 112.358C116.552 112.346 116.552 112.789 116.837 112.8C119.161 112.923 121.49 112.886 123.809 112.691C124.091 112.665 124.093 112.222 123.809 112.249ZM122.24 115.32C120.543 115.338 118.848 115.289 117.154 115.173C116.87 115.152 116.871 115.595 117.154 115.615C118.847 115.735 120.542 115.785 122.24 115.763C122.298 115.763 122.355 115.74 122.396 115.698C122.438 115.657 122.461 115.6 122.461 115.542C122.461 115.483 122.438 115.427 122.396 115.385C122.355 115.344 122.298 115.32 122.24 115.32ZM88.5436 51.559C88.7018 51.944 88.8171 52.3452 88.8874 52.7555C88.9723 53.2218 89.0148 53.6948 89.0142 54.1688C89.0155 54.6421 88.979 55.1147 88.9051 55.5822C88.8433 56.0043 88.734 56.418 88.579 56.8155C88.3352 57.4288 88.0124 58.0076 87.6186 58.5372C87.2356 59.0425 86.818 59.5206 86.369 59.9683C86.2215 60.1158 86.0843 60.2633 85.9515 60.4035C85.8217 60.5452 85.6827 60.6783 85.5355 60.8018C85.4246 60.8867 85.3254 60.986 85.2404 61.0969C85.1628 61.201 85.078 61.2996 84.9867 61.3919C84.79 61.5886 84.5967 61.7819 84.4069 61.9717C84.2182 62.1604 84.0482 62.3669 83.8994 62.5884C83.6402 62.9144 83.4268 63.2742 83.265 63.658C83.0934 64.0756 82.9539 64.5057 82.8475 64.9445C82.7498 65.2981 82.7193 65.6669 82.7575 66.0318C82.7843 66.1909 82.7771 66.3538 82.7364 66.5099C82.6957 66.6661 82.6225 66.8118 82.5214 66.9376C82.4508 67.0346 82.3448 67.0998 82.2264 67.1191C82.1024 67.1446 81.9809 67.1811 81.8634 67.2282C81.7967 67.2267 81.7302 67.2208 81.6643 67.2105C81.5976 67.1967 81.5283 67.2029 81.4651 67.2282C81.383 67.2533 81.2962 67.2593 81.2114 67.2459C81.139 67.236 81.0661 67.2301 80.993 67.2282H80.5947C80.4471 67.1796 80.3173 67.1382 80.1963 67.1014C80.0789 67.069 79.9752 66.999 79.9013 66.9022C79.7767 66.7212 79.7132 66.5051 79.7198 66.2855C79.7198 66.045 79.7316 65.7913 79.7567 65.5243C79.753 65.0482 79.808 64.5735 79.9205 64.1109C80.0199 63.6995 80.1593 63.2988 80.3365 62.9144C80.6379 62.2112 81.0542 61.5631 81.5684 60.9965C82.0759 60.4399 82.5957 59.9083 83.1278 59.4017L83.4907 59.0388C83.6102 58.9193 83.7312 58.7851 83.8521 58.6405L83.979 58.5136L84.1059 58.3867C84.2269 58.2392 84.3478 58.1035 84.4688 57.9692C84.5991 57.8259 84.7203 57.6746 84.8318 57.5163C84.9034 57.421 84.9642 57.3181 85.0132 57.2094C85.0657 57.0906 85.1258 56.9753 85.1932 56.8642C85.4883 56.3813 85.6815 55.7469 85.773 54.9611C85.8743 54.2259 85.8128 53.4775 85.593 52.7688C85.5025 52.4957 85.3936 52.229 85.267 51.9706C85.1362 51.7193 84.9883 51.4773 84.8244 51.2462C84.5777 50.9279 84.269 50.6629 83.9171 50.4673C83.5467 50.2581 83.1587 50.0819 82.7575 49.9406C82.6363 49.8927 82.5071 49.8682 82.3768 49.8683C82.2374 49.8677 82.0983 49.8559 81.9608 49.8329C81.4824 49.7346 80.989 49.7346 80.5106 49.8329C80.3441 49.8806 80.1746 49.9166 80.0031 49.9406C79.8392 49.9637 79.6802 50.0135 79.5325 50.0881C79.0171 50.2801 78.5433 50.569 78.1368 50.9394C77.7479 51.3081 77.4122 51.7291 77.1395 52.1904C76.9679 52.4607 76.8339 52.753 76.7412 53.0594C76.6438 53.3736 76.5597 53.7012 76.4874 54.039C76.4177 54.2883 76.3684 54.5429 76.3399 54.8003C76.3199 55.0317 76.2456 55.2551 76.123 55.4523C75.996 55.577 75.8297 55.6537 75.6524 55.6692C75.395 55.7199 75.1341 55.7505 74.872 55.7607C74.6111 55.7739 74.3495 55.7556 74.093 55.7061C73.9132 55.6809 73.7405 55.6192 73.5855 55.5246C73.4627 55.4082 73.38 55.2558 73.3494 55.0894C73.2892 54.8895 73.2831 54.6772 73.3317 54.4742L73.4409 53.713C73.5132 53.4474 73.5796 53.1863 73.6401 52.9325C73.6967 52.6901 73.7757 52.4536 73.8761 52.2258C73.9484 52.0326 74.0089 51.8511 74.0576 51.6829C74.111 51.4999 74.197 51.328 74.3113 51.1754C74.4304 50.9787 74.5508 50.7791 74.6728 50.5765C74.7946 50.3698 74.9281 50.1703 75.0726 49.979C75.4819 49.4479 75.9705 48.9832 76.5213 48.601C77.0973 48.2041 77.7177 47.8758 78.3699 47.6229C78.6471 47.4988 78.9399 47.4135 79.2403 47.3691C79.5541 47.32 79.8683 47.2595 80.1831 47.1877C80.3512 47.1641 80.515 47.1464 80.6729 47.1331C80.8307 47.1198 80.9915 47.1154 81.1612 47.1154C82.8283 47.0662 84.2239 47.3318 85.3481 47.9121C86.4276 48.4525 87.3369 49.2806 87.9756 50.305C88.0958 50.4927 88.1947 50.693 88.2707 50.9025C88.3622 51.0943 88.4463 51.3171 88.5436 51.559ZM83.1794 70.7705C83.204 70.9018 83.2158 71.0352 83.2148 71.1688V71.5671C83.2148 71.9064 83.203 72.2561 83.1794 72.619C83.1558 72.9819 83.0319 73.2357 82.8165 73.3803C82.6273 73.4823 82.4147 73.5332 82.1998 73.5278H80.369C80.0693 73.5482 79.771 73.4722 79.5177 73.3109C79.4017 73.2065 79.3251 73.0653 79.3008 72.9111C79.2497 72.7031 79.2191 72.4907 79.2094 72.2767C79.1976 72.0477 79.1976 71.8183 79.2094 71.5892C79.2212 71.3591 79.2271 71.1467 79.2271 70.9549C79.2271 70.7852 79.2271 70.6288 79.2462 70.4828C79.256 70.3462 79.2863 70.2119 79.3362 70.0844C79.3847 69.9527 79.4674 69.8363 79.5758 69.7471C79.6842 69.6579 79.8143 69.5992 79.9529 69.5769C80.0378 69.5778 80.1225 69.5837 80.2067 69.5946C80.2446 69.6035 80.284 69.6032 80.3217 69.5937C80.3595 69.5842 80.3944 69.5658 80.4235 69.54C80.6168 69.54 80.841 69.54 81.0948 69.5223C81.3487 69.5105 81.603 69.5164 81.8561 69.54C82.0879 69.5612 82.318 69.5977 82.545 69.6492C82.7046 69.6724 82.8514 69.7495 82.9611 69.8676C83.0332 69.9366 83.0843 70.0245 83.1086 70.1213C83.1337 70.2172 83.1573 70.3264 83.1824 70.4474L83.1794 70.7705ZM81.0019 88.3118C81.2097 88.8185 81.3615 89.3464 81.4548 89.886C81.5666 90.4998 81.6224 91.1225 81.6215 91.7464C81.6213 92.3689 81.572 92.9905 81.474 93.6052C81.3915 94.1604 81.2475 94.7047 81.0446 95.2281C80.7236 96.0352 80.2986 96.797 79.7803 97.4942C79.2761 98.1593 78.7265 98.7888 78.1353 99.3781C77.945 99.5684 77.7606 99.7587 77.5865 99.9505C77.4163 100.137 77.2334 100.312 77.0392 100.474C76.8964 100.585 76.768 100.714 76.6571 100.856C76.5549 100.991 76.4435 101.119 76.3237 101.238L75.5595 102.001C75.3112 102.249 75.0878 102.52 74.8926 102.811C74.5518 103.24 74.2709 103.714 74.0576 104.219C73.8325 104.769 73.649 105.335 73.5088 105.912C73.3799 106.377 73.3399 106.862 73.3908 107.342C73.438 107.85 73.3342 108.248 73.0795 108.535C72.9877 108.66 72.8515 108.745 72.6988 108.773C72.5358 108.807 72.3763 108.857 72.2223 108.92C72.1343 108.919 72.0466 108.911 71.9597 108.897C71.8718 108.879 71.7804 108.887 71.6971 108.92C71.5892 108.954 71.4752 108.962 71.3637 108.944C71.2687 108.931 71.1732 108.923 71.0775 108.92H70.5523C70.3619 108.857 70.1864 108.801 70.0271 108.754C69.8743 108.711 69.7403 108.619 69.6464 108.491C69.4824 108.254 69.3986 107.97 69.4074 107.681C69.4074 107.364 69.4237 107.029 69.4561 106.679C69.451 106.053 69.5229 105.428 69.67 104.819C69.8023 104.278 69.9861 103.751 70.2188 103.245C70.6153 102.318 71.1638 101.464 71.8417 100.718C72.5085 99.9859 73.1921 99.2866 73.8924 98.6198L74.3689 98.1418C74.5282 97.9839 74.6861 97.8084 74.8454 97.6181L75.0136 97.4514L75.1803 97.2832C75.3377 97.0934 75.4965 96.9109 75.6568 96.7358C75.8272 96.5488 75.9863 96.3517 76.1333 96.1457C76.2278 96.0198 76.308 95.8837 76.3723 95.74C76.4426 95.5842 76.5224 95.433 76.6113 95.2871C76.992 94.6517 77.2462 93.8157 77.3741 92.7791C77.5066 91.8113 77.4251 90.8262 77.1351 89.8934C77.0175 89.5338 76.874 89.1833 76.7058 88.8444C76.5386 88.5127 76.3472 88.1937 76.1333 87.8899C75.8101 87.4685 75.4045 87.1171 74.9413 86.8572C74.4539 86.5826 73.9435 86.3511 73.4158 86.1653C73.2562 86.1021 73.0859 86.0701 72.9142 86.0708C72.7303 86.07 72.5467 86.0537 72.3654 86.0222C71.7358 85.8964 71.0875 85.8964 70.4578 86.0222C70.2394 86.0874 70.0166 86.1367 69.791 86.1697C69.5754 86.1997 69.3662 86.2644 69.1714 86.3615C68.4935 86.6146 67.8701 86.9946 67.3346 87.4812C66.8262 87.9657 66.3873 88.5183 66.0304 89.1233C65.8048 89.4791 65.6282 89.8636 65.5052 90.2666C65.3784 90.6807 65.2672 91.11 65.1718 91.5546C65.0802 91.8825 65.0166 92.2176 64.9815 92.5563C64.9536 92.8607 64.8556 93.1546 64.6953 93.4149C64.5969 93.5418 64.3904 93.6372 64.0757 93.7011C63.735 93.7672 63.3897 93.8072 63.043 93.8206C62.6995 93.8387 62.3551 93.8145 62.0176 93.7483C61.781 93.7155 61.5536 93.6346 61.3493 93.5108C61.1884 93.3574 61.0799 93.1571 61.0395 92.9384C60.9599 92.6748 60.9518 92.3948 61.0159 92.127L61.1634 91.1252C61.2578 90.7756 61.3449 90.4348 61.4245 90.0999C61.4991 89.7811 61.6033 89.4699 61.7358 89.1705C61.8342 88.9167 61.9134 88.6782 61.9734 88.4549C62.0452 88.2146 62.158 87.9886 62.3068 87.7866C62.4661 87.5329 62.6254 87.2708 62.7848 87.0003C62.9442 86.7284 63.1191 86.4659 63.3085 86.214C63.8479 85.5156 64.4913 84.9041 65.2161 84.4008C65.9759 83.8786 66.7938 83.4464 67.6533 83.1129C68.0182 82.9508 68.4033 82.8387 68.7981 82.7794C69.2112 82.7155 69.6243 82.6358 70.0374 82.5404C70.2602 82.5095 70.48 82.4859 70.6821 82.4696C70.8842 82.4534 71.1026 82.446 71.3253 82.446C73.5196 82.3821 75.3559 82.7317 76.8341 83.495C78.2551 84.2054 79.452 85.295 80.2922 86.6433C80.4476 86.8906 80.5752 87.1543 80.6729 87.4296C80.7629 87.6996 80.8735 87.9946 81.0019 88.3118ZM73.9425 113.588C73.9755 113.761 73.9918 113.937 73.9912 114.113V114.631C73.9912 115.074 73.9735 115.539 73.9425 116.015C73.9115 116.492 73.7522 116.825 73.466 117.017C73.2168 117.15 72.937 117.216 72.6546 117.207H70.2469C69.7551 117.207 69.3814 117.112 69.1256 116.921C68.973 116.785 68.8701 116.603 68.8335 116.402C68.7673 116.128 68.7273 115.848 68.714 115.567C68.6978 115.265 68.6978 114.963 68.714 114.661C68.7303 114.358 68.7391 114.081 68.7391 113.826C68.7391 113.603 68.7465 113.396 68.7627 113.206C68.7749 113.026 68.8152 112.849 68.8822 112.681C68.9451 112.507 69.0535 112.354 69.1959 112.236C69.3384 112.119 69.5097 112.041 69.6922 112.013C69.8037 112.014 69.9151 112.022 70.0256 112.038C70.0756 112.049 70.1276 112.049 70.1774 112.036C70.2272 112.024 70.2733 111.999 70.3118 111.965C70.5675 111.965 70.8626 111.958 71.197 111.942C71.531 111.926 71.8658 111.934 72.1987 111.965C72.5041 111.994 72.8072 112.044 73.106 112.113C73.3154 112.144 73.5082 112.245 73.6534 112.399C73.7463 112.491 73.8126 112.606 73.8451 112.733C73.8761 112.861 73.9086 113.004 73.9396 113.162L73.9425 113.588ZM233.163 65.7987C233.49 66.5944 233.729 67.4235 233.875 68.2713C234.05 69.2355 234.138 70.2137 234.137 71.1939C234.139 72.172 234.063 73.1487 233.911 74.115C233.783 74.9868 233.557 75.8414 233.237 76.6628C232.733 77.9301 232.066 79.1263 231.253 80.2213C230.46 81.2664 229.596 82.2558 228.667 83.1822C228.372 83.4773 228.085 83.7767 227.805 84.0807C227.537 84.3746 227.249 84.6501 226.944 84.9054C226.72 85.079 226.518 85.2803 226.345 85.5043C226.184 85.7161 226.008 85.9163 225.819 86.1033L224.626 87.3086C224.234 87.6968 223.883 88.1234 223.577 88.5818C223.042 89.2571 222.601 90.0015 222.265 90.7948C221.911 91.6568 221.623 92.5446 221.404 93.4503C221.201 94.1814 221.137 94.9441 221.216 95.6987C221.292 96.4983 221.13 97.1229 220.73 97.5723C220.585 97.7685 220.37 97.9024 220.131 97.9471C219.874 97.9984 219.623 98.0735 219.381 98.1713C219.243 98.1684 219.105 98.1556 218.968 98.133C218.83 98.1056 218.687 98.1189 218.556 98.1713C218.387 98.2235 218.208 98.2361 218.033 98.2082C217.886 98.1884 217.738 98.176 217.59 98.1713H216.765C216.47 98.073 216.196 97.9854 215.942 97.9087C215.702 97.8408 215.492 97.6962 215.342 97.4971C215.084 97.1231 214.953 96.6764 214.967 96.2224C214.967 95.7238 214.992 95.1996 215.042 94.6498C215.035 93.6654 215.148 92.6838 215.38 91.7272C215.587 90.8771 215.875 90.049 216.242 89.2546C216.864 87.7985 217.725 86.4566 218.79 85.2845C219.837 84.1348 220.911 83.0357 222.01 81.9872L222.76 81.2378C223.009 80.9889 223.259 80.714 223.509 80.4131L223.772 80.1519L224.034 79.8893C224.283 79.5943 224.532 79.3071 224.782 79.0277C225.05 78.7304 225.301 78.4176 225.532 78.0909C225.681 77.8936 225.806 77.6797 225.906 77.4536C226.018 77.2096 226.143 76.9722 226.281 76.7425C226.881 75.7432 227.281 74.4322 227.481 72.8093C227.689 71.2889 227.561 69.7413 227.106 68.2757C226.92 67.7114 226.694 67.1608 226.432 66.6278C226.168 66.1072 225.867 65.6062 225.532 65.1289C225.023 64.4713 224.386 63.9233 223.66 63.5178C222.893 63.0863 222.091 62.723 221.261 62.432C221.011 62.3326 220.744 62.2825 220.474 62.2845C220.186 62.2833 219.897 62.2581 219.613 62.2092C218.624 62.0106 217.605 62.0106 216.616 62.2092C216.272 62.3088 215.922 62.3842 215.568 62.435C215.229 62.4799 214.899 62.5795 214.592 62.73C213.528 63.1278 212.549 63.7252 211.708 64.4901C210.903 65.2512 210.207 66.1212 209.643 67.0748C209.288 67.6343 209.01 68.2392 208.818 68.8732C208.621 69.5233 208.446 70.198 208.293 70.8973C208.151 71.4126 208.053 71.9386 207.998 72.47C207.958 72.9479 207.806 73.4097 207.555 73.8184C207.408 74.0191 207.08 74.1681 206.581 74.2684C206.05 74.3721 205.511 74.4348 204.97 74.4558C204.431 74.4835 203.89 74.4459 203.359 74.3436C202.861 74.2433 202.51 74.1179 202.31 73.9689C202.111 73.8199 201.947 73.5263 201.824 73.069C201.699 72.6552 201.687 72.216 201.787 71.7958L202.011 70.2216C202.161 69.6728 202.299 69.1363 202.424 68.6121C202.54 68.1105 202.703 67.6211 202.911 67.15C203.058 66.7517 203.184 66.377 203.286 66.0259C203.398 65.6487 203.576 65.2938 203.809 64.9769C204.059 64.5786 204.309 64.1665 204.559 63.7406C205.512 62.1119 206.818 60.7171 208.38 59.6584C209.57 58.8371 210.853 58.1578 212.201 57.6343C212.774 57.3784 213.379 57.2022 213.999 57.1106C214.648 57.0122 215.298 56.8873 215.948 56.7359C216.296 56.6872 216.634 56.6488 216.959 56.6237C217.283 56.5987 217.621 56.5854 217.971 56.5854C221.413 56.487 224.298 57.0368 226.625 58.2348C228.952 59.4327 230.763 61.0806 232.057 63.1785C232.3 63.5679 232.501 63.9824 232.656 64.4148C232.795 64.8456 232.964 65.3069 233.163 65.7987ZM222.074 105.515C222.125 105.787 222.15 106.063 222.149 106.34V107.163C222.149 107.864 222.122 108.587 222.074 109.336C222.025 110.086 221.779 110.61 221.324 110.911C220.933 111.118 220.494 111.22 220.051 111.206H216.267C215.493 111.206 214.906 111.058 214.507 110.763C214.306 110.616 214.156 110.34 214.057 109.938C213.952 109.509 213.889 109.07 213.869 108.628C213.844 108.154 213.844 107.679 213.869 107.205C213.895 106.73 213.907 106.292 213.906 105.893C213.906 105.543 213.918 105.219 213.945 104.919C213.964 104.636 214.027 104.358 214.132 104.095C214.329 103.546 214.753 103.196 215.405 103.046C215.581 103.048 215.756 103.06 215.93 103.083C216.008 103.1 216.088 103.099 216.165 103.079C216.242 103.06 216.313 103.022 216.373 102.97C216.773 102.97 217.236 102.958 217.76 102.934C218.284 102.909 218.81 102.921 219.332 102.97C219.812 103.013 220.287 103.089 220.756 103.196C221.181 103.295 221.468 103.442 221.618 103.639C221.762 103.784 221.864 103.965 221.913 104.164C221.961 104.363 222.012 104.589 222.06 104.838L222.074 105.515Z" fill="black"/>
</svg>
