<svg width="145" height="109" viewBox="0 0 145 109" fill="none" xmlns="http://www.w3.org/2000/svg">
<path d="M144.196 107.123L128.147 107.404C120.155 98.6534 114.714 91.9516 114.05 91.3129C113.93 91.2005 113.82 91.1047 113.729 91.0226C111.493 89.1134 106.188 86.641 101.378 83.1132C96.5731 79.5798 89.4219 69.9015 89.4219 69.9015C89.4219 69.9015 77.9976 58.0316 75.7965 55.0861C75.7136 54.9731 75.642 54.8711 75.5846 54.7856C74.7844 53.5658 75.3221 52.5514 76.0061 52.0788C76.1385 51.9872 76.2713 51.9178 76.4045 51.8708C76.5875 51.8034 76.7658 51.7808 76.9141 51.8033C77.0065 51.8184 77.1159 51.85 77.2368 51.8981C77.4758 51.9944 77.7716 52.1511 78.1103 52.3601C78.1949 52.4117 78.2797 52.4688 78.37 52.5259C78.4576 52.5857 78.5479 52.6456 78.6412 52.7081L78.6468 52.7136C78.8361 52.8415 79.034 52.9832 79.2405 53.1387C79.3423 53.2151 79.4498 53.2941 79.5573 53.376C79.6648 53.4578 79.7724 53.5425 79.8855 53.627C80.3271 53.9738 80.8027 54.3563 81.2928 54.7636C81.6412 55.0506 81.9982 55.3542 82.3638 55.666C82.5226 55.8056 82.6841 55.9451 82.8485 56.0874C82.9506 56.1749 83.0498 56.2625 83.1519 56.3528C83.3163 56.4951 83.4807 56.6402 83.6452 56.7852C84.3994 57.4531 85.1624 58.1432 85.9058 58.8252C86.1866 59.0799 86.4618 59.3347 86.7371 59.5895C87.5202 60.3155 88.2667 61.0198 88.9423 61.6584C89.1042 61.8146 89.2631 61.9654 89.4164 62.1106C90.3192 62.9713 91.0632 63.6896 91.5488 64.1641C91.6283 64.2408 91.7022 64.3121 91.7675 64.378C91.8697 64.4739 91.9493 64.5534 92.0118 64.6165C92.0373 64.6384 92.06 64.6603 92.0771 64.6796L92.1594 64.7591L91.0182 63.5118L78.6462 49.9724C78.6462 49.9724 77.1833 48.5298 76.4136 46.98C75.9449 46.0392 75.7323 45.0575 76.2555 44.3337C76.6261 43.8191 76.9967 43.4609 77.3274 43.2151C77.3715 43.1836 77.4129 43.1549 77.4543 43.1291C77.6998 42.9629 77.924 42.8557 78.121 42.7852C78.1543 42.7735 78.1848 42.7618 78.2153 42.7529C78.2459 42.7439 78.2764 42.735 78.3042 42.729C78.3459 42.7171 78.3848 42.708 78.421 42.699C78.4293 42.6988 78.4376 42.6959 78.446 42.6958L78.5378 42.6774C78.6074 42.6678 78.6687 42.6612 78.7162 42.6603C78.7636 42.6567 78.7999 42.6589 78.8223 42.6613C78.839 42.661 78.8474 42.6608 78.8474 42.6608C78.8271 42.6193 78.8068 42.5778 78.7894 42.5362C77.5873 39.8887 79.4742 38.7697 80.6045 38.4372C80.6823 38.4163 80.7602 38.3982 80.8297 38.383L80.8408 38.3828C80.8408 38.3828 80.8464 38.3799 80.8492 38.3827C80.8659 38.3796 80.8826 38.3765 80.8965 38.3735C81.0773 38.3396 81.2643 38.3363 81.4546 38.3609C81.4741 38.3606 81.4965 38.363 81.5189 38.3709C81.5496 38.3704 81.5805 38.3782 81.6113 38.3861C81.6674 38.399 81.7234 38.412 81.7796 38.4278C81.8385 38.4435 81.8946 38.462 81.9536 38.4806C82.0097 38.4991 82.0659 38.5205 82.125 38.5445C82.1812 38.5659 82.2375 38.5928 82.2937 38.6169C82.3866 38.66 82.4767 38.7059 82.5668 38.7517C82.6119 38.7761 82.6571 38.8032 82.7022 38.8303C82.7474 38.8574 82.7924 38.8818 82.8348 38.9089C82.8771 38.9333 82.9222 38.9604 82.9646 38.9904C83.007 39.0176 83.0494 39.0475 83.0918 39.0775C83.1313 39.1047 83.1737 39.1347 83.2133 39.1619C83.2528 39.1891 83.2924 39.2191 83.3321 39.2492C83.4649 39.3445 83.5895 39.4456 83.7057 39.5441C83.7652 39.5961 83.822 39.6481 83.8786 39.6946C84.2075 39.9819 84.4293 40.2181 84.472 40.262L84.4633 40.2426C84.4633 40.2426 84.892 40.6566 85.6105 41.353C88.314 43.9799 95.1325 50.6017 98.5262 53.9003C98.5886 53.9606 98.6511 54.0209 98.7108 54.0813C98.8953 54.2567 99.0657 54.424 99.2247 54.5775C99.3639 54.7147 99.4973 54.8407 99.6166 54.9587L99.7898 55.1259L100.082 55.4111L100.392 55.7127L100.488 55.8059C100.471 55.7867 100.443 55.7537 100.4 55.707L100.4 55.7042C99.5145 54.7036 93.4116 47.8208 88.3261 42.4387C87.0729 41.0175 86.1381 39.761 85.6225 38.6954C85.0055 37.4165 84.9879 36.4119 85.7408 35.7315C86.4141 35.1279 87.1564 34.953 87.8097 34.9611C88.6725 34.9739 89.4084 35.55 90.0522 36.1277L94.4135 40.0039L104.514 48.6394L112.622 55.568L113.111 55.9447L113.604 56.3241L114.35 56.8972L114.351 56.8999L114.353 56.8971C113.661 54.9887 112.729 52.1438 112.729 52.1438C108.66 49.834 106.924 47.2908 106.377 45.2095C105.641 42.4142 107.047 40.4467 107.835 40.9744C109.214 41.8966 111.672 43.6149 115.092 44.8836C118.506 46.1553 119.244 45.8995 119.968 47.3914C120.686 48.8862 122.084 52.4906 123.782 56.2181C125.147 59.2118 125.408 59.933 125.177 62.5442C125.124 63.1816 125.037 63.9341 124.933 64.8571C124.534 68.3674 124.604 72.5477 124.668 74.4392L124.669 74.4588C124.688 75.0865 124.709 75.4574 124.709 75.4574L124.709 75.4602L125.492 76.3621L125.492 76.3649L128.261 79.546L143.97 94.2719L144.196 107.123Z" fill="#FE845B"/>
<g style="mix-blend-mode:multiply" opacity="0.5">
<path d="M114.351 56.8971L113.604 56.324L112.622 55.568L104.514 48.6394C105.736 51.1722 108.157 54.8508 112.315 56.3634C106.525 71.6505 115.303 80.1641 115.303 80.1641C108.269 70.3024 114.335 56.9365 114.351 56.8999L114.351 56.8971Z" fill="#CC8A79"/>
</g>
<g style="mix-blend-mode:multiply" opacity="0.5">
<path d="M125.492 76.3622L124.705 75.4576C124.705 75.4576 123.683 78.2726 121.107 79.7442C121.107 79.7442 123.394 79.4836 125.492 76.3622Z" fill="#CC8A79"/>
</g>
<g style="mix-blend-mode:multiply" opacity="0.5">
<path d="M91.2215 71.4165C91.2215 71.4165 93.5555 60.1343 106.343 52.0046C106.343 52.0046 103.577 53.1306 100.392 55.71L84.481 40.2674C84.481 40.2674 82.4743 38.0639 80.9025 38.3678C80.8134 38.3833 80.7134 38.4074 80.6078 38.4372L99.4956 56.4654C98.4263 57.4081 97.3346 58.5104 96.3046 59.7874L78.8506 42.6552C78.8506 42.6552 78.1905 42.5802 77.3362 43.2093L95.4943 60.854C94.7066 61.9425 93.9739 63.1417 93.3355 64.4593C93.3355 64.4593 93.1598 64.789 92.9101 65.3545L91.0242 63.5061L92.1654 64.7534C91.6627 64.2598 79.3666 52.1818 76.9201 51.7976C76.6654 51.7574 76.3239 51.8611 76.0121 52.0731C76.4486 52.2916 77.1198 52.679 77.9912 53.3393C79.4962 54.4797 90.6622 65.3074 92.3234 66.9196C91.8369 68.3071 91.4556 69.7989 91.2271 71.4136L91.2215 71.4165Z" fill="#CC8A79"/>
</g>
<rect x="56.7314" y="22.2644" width="43.4403" height="43.4403" rx="6.32797" fill="#6255FA"/>
<path d="M103.386 17.3385L111.344 9.37964" stroke="white" stroke-width="3.51554" stroke-linecap="round"/>
<path d="M96.4931 13.3591L99.4061 2.4872" stroke="white" stroke-width="3.51554" stroke-linecap="round"/>
<path d="M108.017 23.7209L118.889 20.8077" stroke="white" stroke-width="3.51554" stroke-linecap="round"/>
<g clip-path="url(#clip0_210_159)">
<path d="M136.402 66.4184C136.402 64.2669 138.148 62.4978 140.323 62.4978V62.4739C138.171 62.4739 136.402 60.7288 136.402 58.5534H136.379C136.379 60.7049 134.633 62.4739 132.458 62.4739L132.506 62.4978C134.657 62.4978 136.402 64.243 136.402 66.4184ZM141.279 61.5416C141.279 60.0595 142.474 58.8642 143.957 58.8642V58.8403C142.474 58.8403 141.279 57.645 141.279 56.1628H141.255C141.255 57.645 140.06 58.8403 138.578 58.8403L138.602 58.8642C140.084 58.8642 141.279 60.0595 141.279 61.5416ZM140.251 63.98C140.251 64.7928 139.582 65.4382 138.793 65.4382C139.606 65.4382 140.251 66.0837 140.251 66.8965C140.251 66.0837 140.897 65.4382 141.709 65.4382C140.897 65.4382 140.251 64.7928 140.251 63.98Z" fill="white"/>
</g>
<path d="M36.1284 63.1719L40.3028 56.7832C40.3028 56.7832 48.0814 49.5476 48.1212 48.2101C48.1611 46.8726 42.6192 51.3136 42.6192 51.3136L34.4795 60.0984L36.1284 63.1719Z" fill="#FAB29A"/>
<g style="mix-blend-mode:multiply" opacity="0.5">
<path d="M36.1284 63.1719L40.3028 56.7832C40.3028 56.7832 48.0814 49.5476 48.1212 48.2101C48.1611 46.8726 42.6192 51.3136 42.6192 51.3136L34.4795 60.0984L36.1284 63.1719Z" fill="#CC8A79"/>
</g>
<path d="M49.4892 48.1005C46.1541 50.5165 42.9137 52.4568 41.7206 53.7619C40.9759 54.5764 39.4242 56.6462 37.6931 58.5541C36.6495 59.7048 35.5461 60.7932 34.515 61.5156C31.7752 63.4334 36.4303 57.2639 36.4303 57.2639C36.4303 57.2639 40.829 49.9312 43.8303 47.6347C46.8341 45.3358 49.29 42.9895 50.5976 43.2535C50.7122 43.276 50.8218 43.3133 50.9264 43.3656C52.0322 43.8986 52.5379 45.8962 49.4892 48.1005Z" fill="#FAB29A"/>
<g style="mix-blend-mode:multiply" opacity="0.5">
<path d="M50.9264 43.3657C49.8628 44.9373 46.859 47.2138 45.7307 48.1728C44.3832 49.321 42.9784 50.27 41.5637 51.9338C39.9173 53.8716 37.8824 56.97 37.8824 56.97L37.6931 58.5516C36.6495 59.7024 35.5461 60.7908 34.515 61.5131C31.7752 63.431 36.4303 57.2614 36.4303 57.2614C36.4303 57.2614 40.829 49.9287 43.8303 47.6323C46.8341 45.3333 49.29 42.9871 50.5976 43.2511C50.7122 43.2735 50.8218 43.3109 50.9264 43.3632V43.3657Z" fill="#CC8A79"/>
</g>
<path d="M49.2902 43.296C48.9863 44.2723 47.7659 45.3682 46.4433 46.4916C45.4769 47.3135 44.4507 48.1504 43.686 48.9624C41.8728 50.8827 35.499 59.4234 35.499 59.4234L35.9075 50.412C35.9075 50.412 41.2003 45.3633 43.4295 43.682C43.96 43.281 44.4358 42.9224 44.8617 42.611C46.2266 41.6048 47.0959 41.0443 47.7285 40.9372C48.5629 40.7978 49.8207 41.6097 49.2902 43.296Z" fill="#FAB29A"/>
<path d="M37.8705 53.2263C37.8705 53.2263 36.6351 57.2314 36.9191 59.5104C36.9465 59.7246 36.9639 59.9338 36.9789 60.1406C37.0486 61.2191 36.9465 62.2303 36.7099 63.4657C36.5081 64.5218 36.2142 65.7447 35.8481 67.3164C34.9713 71.0873 34.7322 72.2729 35.5367 73.7972C36.3387 75.3216 37.5467 75.4461 38.827 75.2145C39.9777 75.0077 45.4922 73.314 47.2456 76.4847C47.6018 77.1298 47.3104 77.9418 46.6354 78.2282C45.131 78.8684 42.4261 80.0141 41.2903 80.4749C39.6763 81.1299 37.3575 81.3317 35.4346 82.2956C34.132 82.9482 33.0709 83.9619 30.6449 84.8934C29.4942 85.3343 28.0371 85.7577 26.0969 86.1139L23.1852 87.7877L22.5277 88.1638L21.4268 88.7964L21.9374 87.6133L29.4718 70.2031L32.0124 60.2925L32.2639 59.9911L37.8705 53.2263Z" fill="#FAB29A"/>
<g style="mix-blend-mode:multiply" opacity="0.5">
<path d="M37.8703 53.2263C37.8703 53.2263 36.6349 57.2314 36.9189 59.5104C36.9463 59.7246 36.9637 59.9338 36.9787 60.1406C37.0484 61.2191 36.9463 62.2303 36.7097 63.4657C34.9662 68.9876 34.067 74.1459 33.0732 78.6691C32.5153 81.2072 31.6261 83.2495 30.6472 84.8934C29.4965 85.3343 28.0394 85.7577 26.0992 86.1139L23.1875 87.7877L29.8751 70.8681L32.2662 59.9936L37.8728 53.2288L37.8703 53.2263Z" fill="#CC8A79"/>
</g>
<g style="mix-blend-mode:multiply" opacity="0.5">
<path d="M46.3681 44.0482C46.7492 44.9449 46.7193 45.7145 46.4404 46.4916C45.474 47.3136 44.4478 48.1505 43.6831 48.9624C41.8699 50.8828 35.4961 59.4235 35.4961 59.4235L35.9046 50.412C35.9046 50.412 41.1974 45.3633 43.4266 43.6821C43.9571 43.2811 44.4328 42.9224 44.8587 42.6111C45.4341 42.8626 46.0518 43.2985 46.3681 44.0482Z" fill="#CC8A79"/>
</g>
<path d="M45.5038 46.3174C45.332 46.7283 45.0281 47.1916 44.5574 47.7172C44.5574 47.7172 42.2335 49.5653 41.5162 50.3474C41.1525 50.7459 40.3829 51.4906 39.5759 52.5043C39.5759 52.5068 39.5734 52.5093 39.5709 52.5118C39.155 53.0324 38.7315 53.6252 38.348 54.2777C38.3455 54.2802 38.3455 54.2827 38.343 54.2852C38.0092 54.8531 37.7079 55.4633 37.4687 56.1134C37.3492 56.4372 37.1948 56.8606 37.0154 57.3637C37.003 57.3911 36.993 57.421 36.983 57.4484C36.9731 57.4783 36.9606 57.5082 36.9507 57.5406C36.6667 58.3252 36.3255 59.2816 35.9519 60.3327C35.78 60.8209 35.6007 61.329 35.4189 61.847C33.9892 65.9294 32.3603 70.7639 31.9991 72.5397C31.4188 75.3916 30.9779 79.8475 23.4634 87.6012C23.4459 87.6186 23.431 87.6361 23.4111 87.6535C20.6115 90.5577 15.6525 96.9464 10.5191 103.841H0.802734V91.6063L17.6525 74.6369C17.6525 74.6369 26.8234 61.466 28.7935 58.6191C30.7662 55.7722 34.5247 50.9676 35.9195 49.5827C37.3143 48.1954 42.5722 43.7893 43.4266 43.6847C44.1364 43.5975 46.3382 44.3248 45.5038 46.3174Z" fill="#FAB29A"/>
<g clip-path="url(#clip1_210_159)">
<path d="M35.5731 19.1527C35.5731 15.3559 38.6527 12.2341 42.4917 12.2341V12.1919C38.6949 12.1919 35.5731 9.1123 35.5731 5.27333H35.5309C35.5309 9.07012 32.4513 12.1919 28.6123 12.1919L28.6967 12.2341C32.4935 12.2341 35.5731 15.3137 35.5731 19.1527ZM44.1791 10.5466C44.1791 7.93108 46.2884 5.82176 48.904 5.82176V5.77957C46.2884 5.77957 44.1791 3.67025 44.1791 1.05469H44.1369C44.1369 3.67025 42.0276 5.77957 39.412 5.77957L39.4542 5.82176C42.0698 5.82176 44.1791 7.93108 44.1791 10.5466ZM42.3651 14.8497C42.3651 16.284 41.1839 17.423 39.7917 17.423C41.2261 17.423 42.3651 18.5621 42.3651 19.9964C42.3651 18.5621 43.5041 17.423 44.9385 17.423C43.5041 17.423 42.3651 16.284 42.3651 14.8497Z" fill="white"/>
</g>
<defs>
<clipPath id="clip0_210_159">
<rect width="11.9528" height="11.9528" fill="white" transform="translate(132.243 55.5652)"/>
</clipPath>
<clipPath id="clip1_210_159">
<rect width="21.0932" height="21.0932" fill="white" transform="translate(28.2324)"/>
</clipPath>
</defs>
</svg>
