<svg width="21" height="21" viewBox="0 0 21 21" fill="none" xmlns="http://www.w3.org/2000/svg">
<path d="M17.3368 15.5001C17.5578 15.5001 17.7697 15.4123 17.926 15.256C18.0823 15.0998 18.1701 14.8878 18.1701 14.6668V11.3334C18.1701 11.1124 18.0823 10.9005 17.926 10.7442C17.7697 10.5879 17.5578 10.5001 17.3368 10.5001H11.5034V8.71512C12.289 8.51229 12.9736 8.02992 13.4289 7.35844C13.8843 6.68696 14.0791 5.87246 13.9769 5.06762C13.8746 4.26277 13.4824 3.52284 12.8736 2.98651C12.2649 2.45019 11.4814 2.1543 10.6701 2.1543C9.85877 2.1543 9.07531 2.45019 8.46656 2.98651C7.8578 3.52284 7.46555 4.26277 7.36332 5.06762C7.26109 5.87246 7.45591 6.68696 7.91125 7.35844C8.36659 8.02992 9.0512 8.51229 9.83675 8.71512V10.5001H4.00342C3.7824 10.5001 3.57044 10.5879 3.41416 10.7442C3.25788 10.9005 3.17008 11.1124 3.17008 11.3334V14.6668C3.17008 14.8878 3.25788 15.0998 3.41416 15.256C3.57044 15.4123 3.7824 15.5001 4.00342 15.5001C4.22443 15.5001 4.43639 15.4123 4.59267 15.256C4.74895 15.0998 4.83675 14.8878 4.83675 14.6668V12.1668H9.83675V14.6668C9.83675 14.8878 9.92455 15.0998 10.0808 15.256C10.2371 15.4123 10.4491 15.5001 10.6701 15.5001C10.8911 15.5001 11.1031 15.4123 11.2593 15.256C11.4156 15.0998 11.5034 14.8878 11.5034 14.6668V12.1668H16.5034V14.6668C16.5034 14.8878 16.5912 15.0998 16.7475 15.256C16.9038 15.4123 17.1157 15.5001 17.3368 15.5001ZM10.6701 7.16678C10.3404 7.16678 10.0182 7.06903 9.74413 6.8859C9.47005 6.70276 9.25643 6.44247 9.13029 6.13792C9.00414 5.83338 8.97113 5.49827 9.03544 5.17497C9.09975 4.85166 9.25849 4.55469 9.49157 4.3216C9.72466 4.08852 10.0216 3.92978 10.3449 3.86547C10.6682 3.80117 11.0033 3.83417 11.3079 3.96032C11.6124 4.08646 11.8727 4.30008 12.0559 4.57417C12.239 4.84825 12.3368 5.17048 12.3368 5.50012C12.3368 5.94214 12.1612 6.36607 11.8486 6.67863C11.536 6.99119 11.1121 7.16678 10.6701 7.16678ZM19.0034 17.1668H15.6701C15.4491 17.1668 15.2371 17.2546 15.0808 17.4109C14.9245 17.5671 14.8368 17.7791 14.8368 18.0001C14.8368 18.2211 14.9245 18.4331 15.0808 18.5894C15.2371 18.7457 15.4491 18.8335 15.6701 18.8335H19.0034C19.2244 18.8335 19.4364 18.7457 19.5927 18.5894C19.749 18.4331 19.8368 18.2211 19.8368 18.0001C19.8368 17.7791 19.749 17.5671 19.5927 17.4109C19.4364 17.2546 19.2244 17.1668 19.0034 17.1668ZM2.33675 18.8335H5.67008C5.8911 18.8335 6.10306 18.7457 6.25934 18.5894C6.41562 18.4331 6.50342 18.2211 6.50342 18.0001C6.50342 17.7791 6.41562 17.5671 6.25934 17.4109C6.10306 17.2546 5.8911 17.1668 5.67008 17.1668H2.33675C2.11574 17.1668 1.90378 17.2546 1.7475 17.4109C1.59122 17.5671 1.50342 17.7791 1.50342 18.0001C1.50342 18.2211 1.59122 18.4331 1.7475 18.5894C1.90378 18.7457 2.11574 18.8335 2.33675 18.8335ZM9.00342 17.1668C8.7824 17.1668 8.57044 17.2546 8.41416 17.4109C8.25788 17.5671 8.17008 17.7791 8.17008 18.0001C8.17008 18.2211 8.25788 18.4331 8.41416 18.5894C8.57044 18.7457 8.7824 18.8335 9.00342 18.8335H12.3368C12.5578 18.8335 12.7697 18.7457 12.926 18.5894C13.0823 18.4331 13.1701 18.2211 13.1701 18.0001C13.1701 17.7791 13.0823 17.5671 12.926 17.4109C12.7697 17.2546 12.5578 17.1668 12.3368 17.1668H9.00342Z" fill="black"/>
</svg>
