<svg width="21" height="21" viewBox="0 0 21 21" fill="none" xmlns="http://www.w3.org/2000/svg">
<path d="M8.30306 9.55841C8.21973 9.55008 8.11973 9.55008 8.02806 9.55841C6.04473 9.49175 4.46973 7.86675 4.46973 5.86675C4.46973 3.82508 6.11973 2.16675 8.16973 2.16675C10.2114 2.16675 11.8697 3.82508 11.8697 5.86675C11.8614 7.86675 10.2864 9.49175 8.30306 9.55841Z" stroke="#252122" stroke-width="1.5" stroke-linecap="round" stroke-linejoin="round"/>
<path d="M14.3451 3.83325C15.9618 3.83325 17.2618 5.14159 17.2618 6.74992C17.2618 8.32492 16.0118 9.60825 14.4535 9.66659C14.3868 9.65825 14.3118 9.65825 14.2368 9.66659" stroke="#252122" stroke-width="1.5" stroke-linecap="round" stroke-linejoin="round"/>
<path d="M4.13652 12.6333C2.11986 13.9833 2.11986 16.1833 4.13652 17.5249C6.42819 19.0583 10.1865 19.0583 12.4782 17.5249C14.4949 16.1749 14.4949 13.9749 12.4782 12.6333C10.1949 11.1083 6.43652 11.1083 4.13652 12.6333Z" stroke="#252122" stroke-width="1.5" stroke-linecap="round" stroke-linejoin="round"/>
<path d="M15.9531 17.1667C16.5531 17.0417 17.1198 16.8001 17.5865 16.4417C18.8865 15.4667 18.8865 13.8584 17.5865 12.8834C17.1281 12.5334 16.5698 12.3001 15.9781 12.1667" stroke="#252122" stroke-width="1.5" stroke-linecap="round" stroke-linejoin="round"/>
</svg>
