<svg width="21" height="21" viewBox="0 0 21 21" fill="none" xmlns="http://www.w3.org/2000/svg">
<path d="M17.8134 4.5063C15.7884 2.7938 12.7134 2.95005 10.6697 4.77505C8.62594 2.95005 5.55094 2.7938 3.52594 4.5063C2.41969 5.4438 1.76969 6.8688 1.74469 8.4188C1.71344 10.0688 2.38844 11.65 3.58844 12.7375L8.40719 17.5625C9.03219 18.1875 9.85094 18.5 10.6697 18.5C11.4884 18.5 12.3072 18.1875 12.9322 17.5625L17.7322 12.7563C18.9509 11.65 19.6259 10.0688 19.5947 8.4188C19.5697 6.8688 18.9197 5.4438 17.8134 4.5063ZM16.8697 11.8563L12.0447 16.6813C11.2884 17.4375 10.0509 17.4375 9.29469 16.6813L4.45094 11.8375C3.50094 10.9688 2.96969 9.7313 2.98844 8.4438C3.01344 7.25005 3.50719 6.16254 4.33844 5.4563C5.03844 4.86255 5.93219 4.57505 6.85094 4.57505C8.06969 4.57505 9.32594 5.08755 10.2009 6.07505C10.4384 6.33755 10.9009 6.33755 11.1384 6.07505C12.6759 4.35005 15.3634 4.06879 17.0009 5.4563C17.8322 6.16254 18.3259 7.25005 18.3509 8.4438C18.3697 9.7313 17.8384 10.9688 16.8697 11.8563Z" fill="black"/>
<path d="M15.2424 5.53204C14.9152 5.42429 14.5652 5.59916 14.4547 5.92447C14.3439 6.2501 14.5187 6.60441 14.8435 6.71672C14.903 6.73716 16.2946 7.23522 16.2946 8.62497C16.2946 8.9701 16.5745 9.24997 16.9196 9.24997C17.2647 9.24997 17.5446 8.9701 17.5446 8.62497C17.5446 6.3261 15.3364 5.56347 15.2424 5.53204Z" fill="black"/>
</svg>
