<svg width="21" height="20" viewBox="0 0 21 20" fill="none" xmlns="http://www.w3.org/2000/svg">
<path d="M17.3368 6.87508V15.0001C17.3368 17.5001 15.8451 18.3334 14.0034 18.3334H7.33675C5.49508 18.3334 4.00342 17.5001 4.00342 15.0001V6.87508C4.00342 4.16675 5.49508 3.54175 7.33675 3.54175C7.33675 4.05841 7.54506 4.52508 7.88673 4.86675C8.2284 5.20841 8.69508 5.41675 9.21175 5.41675H12.1284C13.1618 5.41675 14.0034 4.57508 14.0034 3.54175C15.8451 3.54175 17.3368 4.16675 17.3368 6.87508Z" stroke="#252122" stroke-width="1.5" stroke-linecap="round" stroke-linejoin="round"/>
<path d="M14.0031 3.54175C14.0031 4.57508 13.1614 5.41675 12.1281 5.41675H9.21143C8.69476 5.41675 8.22807 5.20841 7.8864 4.86674C7.54474 4.52508 7.33643 4.05841 7.33643 3.54175C7.33643 2.50841 8.17809 1.66675 9.21143 1.66675H12.1281C12.6448 1.66675 13.1114 1.87508 13.4531 2.21675C13.7948 2.55842 14.0031 3.02508 14.0031 3.54175Z" stroke="#252122" stroke-width="1.5" stroke-linecap="round" stroke-linejoin="round"/>
<path d="M7.33643 10.8333H10.6698" stroke="#252122" stroke-width="1.5" stroke-linecap="round" stroke-linejoin="round"/>
<path d="M7.33643 14.1667H14.0031" stroke="#252122" stroke-width="1.5" stroke-linecap="round" stroke-linejoin="round"/>
</svg>
