<svg width="48" height="42" viewBox="0 0 48 42" fill="none" xmlns="http://www.w3.org/2000/svg">
<path d="M35.5588 17.3599C35.0482 17.2858 34.5609 17.0974 34.1332 16.8088C33.7056 16.5202 33.3485 16.1388 33.0887 15.6931C32.8288 15.2474 32.6728 14.7488 32.6324 14.2345C32.5919 13.7201 32.668 13.2033 32.855 12.7224C32.9739 12.4081 32.9914 12.0644 32.9051 11.7396C32.8188 11.4147 32.633 11.1251 32.3738 10.9112C31.2293 9.95013 29.9266 9.19517 28.5238 8.67993C28.2043 8.56126 27.8556 8.54644 27.5272 8.63756C27.1989 8.72869 26.9076 8.92111 26.695 9.18743C26.375 9.59663 25.966 9.92758 25.4991 10.1552C25.0321 10.3828 24.5195 10.5011 24 10.5011C23.4806 10.5011 22.9679 10.3828 22.501 10.1552C22.034 9.92758 21.625 9.59663 21.305 9.18743C21.0924 8.92111 20.8012 8.72869 20.4728 8.63756C20.1445 8.54644 19.7957 8.56126 19.4763 8.67993C18.181 9.15562 16.9699 9.83499 15.8888 10.6924C15.6162 10.9082 15.4199 11.2055 15.3286 11.5409C15.2373 11.8762 15.2558 12.232 15.3813 12.5562C15.5832 13.0498 15.6666 13.5838 15.6248 14.1154C15.5831 14.6471 15.4173 15.1615 15.1408 15.6175C14.8643 16.0735 14.4848 16.4584 14.0327 16.7412C13.5806 17.0241 13.0685 17.197 12.5375 17.2462C12.1928 17.283 11.869 17.4296 11.6138 17.6643C11.3586 17.899 11.1855 18.2095 11.12 18.5499C10.9571 19.3564 10.875 20.1771 10.875 20.9999C10.8738 21.6887 10.9294 22.3765 11.0413 23.0562C11.0969 23.4076 11.2668 23.7308 11.5246 23.976C11.7824 24.2211 12.1138 24.3745 12.4675 24.4124C13.0102 24.4634 13.5328 24.6435 13.9915 24.9379C14.4503 25.2322 14.8318 25.6322 15.1043 26.1042C15.3767 26.5763 15.5321 27.1068 15.5575 27.6512C15.5828 28.1957 15.4774 28.7383 15.25 29.2337C15.1012 29.5559 15.0643 29.9186 15.1451 30.2642C15.226 30.6097 15.42 30.9184 15.6963 31.1412C16.8339 32.0848 18.124 32.8275 19.5113 33.3374C19.6887 33.3989 19.8748 33.4314 20.0625 33.4337C20.3199 33.4331 20.5734 33.3708 20.8018 33.2521C21.0302 33.1333 21.2267 32.9616 21.375 32.7512C21.6869 32.2968 22.1049 31.9254 22.5929 31.6692C23.0808 31.4131 23.6239 31.2799 24.175 31.2812C24.709 31.2819 25.2354 31.4072 25.7124 31.6472C26.1894 31.8872 26.6038 32.2353 26.9225 32.6637C27.1345 32.9487 27.4349 33.1556 27.7767 33.2521C28.1186 33.3486 28.4827 33.3294 28.8125 33.1974C30.081 32.6869 31.2619 31.9813 32.3125 31.1062C32.5764 30.888 32.7643 30.5917 32.8493 30.26C32.9342 29.9282 32.9117 29.5781 32.785 29.2599C32.5792 28.7727 32.4895 28.2443 32.5229 27.7165C32.5563 27.1886 32.712 26.6758 32.9776 26.2184C33.2432 25.761 33.6114 25.3717 34.0533 25.081C34.4952 24.7904 34.9986 24.6064 35.5238 24.5437C35.8643 24.4966 36.181 24.3423 36.428 24.1032C36.675 23.8641 36.8394 23.5525 36.8975 23.2137C37.038 22.4838 37.1142 21.7431 37.125 20.9999C37.1252 20.2161 37.0519 19.4339 36.9063 18.6637C36.8472 18.3323 36.6852 18.028 36.4433 17.794C36.2014 17.5599 35.8919 17.408 35.5588 17.3599ZM28.375 20.9999C28.375 21.8652 28.1184 22.7111 27.6377 23.4305C27.157 24.15 26.4737 24.7108 25.6743 25.0419C24.8748 25.373 23.9952 25.4597 23.1465 25.2909C22.2978 25.1221 21.5183 24.7054 20.9064 24.0935C20.2946 23.4817 19.8779 22.7021 19.7091 21.8534C19.5403 21.0048 19.6269 20.1251 19.958 19.3257C20.2892 18.5263 20.8499 17.843 21.5694 17.3622C22.2889 16.8815 23.1347 16.6249 24 16.6249C25.1603 16.6249 26.2731 17.0859 27.0936 17.9063C27.9141 18.7268 28.375 19.8396 28.375 20.9999Z" fill="#556987"/>
</svg>
