<svg width="19" height="18" viewBox="0 0 19 18" fill="none" xmlns="http://www.w3.org/2000/svg">
<path d="M16.8302 2.91466L9.93954 0.0537495C9.76692 -0.0178989 9.57289 -0.0179341 9.40031 0.0537495L2.50968 2.91466C2.24724 3.02364 2.07617 3.27986 2.07617 3.56403V7.04186C2.07617 11.8306 4.97055 16.1382 9.40421 17.9479C9.57451 18.0174 9.7653 18.0174 9.93563 17.9479C14.3692 16.1382 17.2637 11.8306 17.2637 7.04186V3.56403C17.2637 3.27986 17.0926 3.02364 16.8302 2.91466ZM15.8574 7.04186C15.8574 11.1128 13.4668 14.8603 9.66992 16.5331C5.97451 14.905 3.48242 11.2231 3.48242 7.04186V4.03344L9.66992 1.46443L15.8574 4.03344V7.04186ZM8.89276 9.41189L11.9149 6.38975C12.1895 6.11518 12.6347 6.11514 12.9093 6.38975C13.1839 6.66436 13.1839 7.10954 12.9093 7.38411L9.38994 10.9034C9.1153 11.1781 8.67011 11.178 8.39558 10.9034L6.43055 8.9384C6.15595 8.6638 6.15595 8.21861 6.43055 7.94404C6.70516 7.66947 7.15034 7.66944 7.42491 7.94404L8.89276 9.41189Z" fill="#252122"/>
</svg>
