<svg width="295" height="294" viewBox="0 0 295 294" fill="none" xmlns="http://www.w3.org/2000/svg">
<path d="M212.663 227.455L75.9994 221.689L26.9976 108.202L86.2003 46.8418L227.945 56.8267L268.002 149.042L212.663 227.455Z" fill="#FFEADC"/>
<path d="M78.5149 161.854H36.8236C35.4253 161.854 34.2917 162.988 34.2917 164.386C34.2917 165.785 35.4253 166.918 36.8236 166.918H78.5149C79.9132 166.918 81.0468 165.785 81.0468 164.386C81.0468 162.988 79.9132 161.854 78.5149 161.854Z" fill="black" stroke="black" stroke-width="0.734726" stroke-miterlimit="10"/>
<path d="M261.548 111.626H227.797C226.398 111.626 225.265 112.76 225.265 114.158C225.265 115.556 226.398 116.69 227.797 116.69H261.548C262.947 116.69 264.08 115.556 264.08 114.158C264.08 112.76 262.947 111.626 261.548 111.626Z" fill="black" stroke="black" stroke-width="0.734726" stroke-miterlimit="10"/>
<path d="M34.239 86.5114C34.239 86.5114 35.369 73.8535 43.2232 73.8535C50.5587 73.8535 52.4734 86.5114 49.3949 86.5114C46.3164 86.5114 47.2525 79.2405 51.7314 79.2405C56.2103 79.2405 56.7275 86.5114 56.7275 86.5114H79.3424M261.491 183.489C261.491 183.489 260.316 171.156 252.792 171.156C245.268 171.156 240.848 183.489 247.34 183.489C253.832 183.489 251.559 170.831 243.705 170.831C236.369 170.831 234.447 183.489 237.533 183.489C240.619 183.489 239.676 176.22 235.197 176.22C230.718 176.22 230.201 183.489 230.201 183.489H198.374" stroke="black" stroke-width="1.32251" stroke-linecap="round" stroke-linejoin="round"/>
<path d="M97.3387 147.42C97.8719 147.42 98.3042 146.988 98.3042 146.455C98.3042 145.921 97.8719 145.489 97.3387 145.489C96.8055 145.489 96.3733 145.921 96.3733 146.455C96.3733 146.988 96.8055 147.42 97.3387 147.42Z" fill="black" stroke="black" stroke-width="0.734726" stroke-miterlimit="10"/>
<path d="M56.7906 192.61C57.3238 192.61 57.7561 192.178 57.7561 191.645C57.7561 191.111 57.3238 190.679 56.7906 190.679C56.2574 190.679 55.8252 191.111 55.8252 191.645C55.8252 192.178 56.2574 192.61 56.7906 192.61Z" fill="black" stroke="black" stroke-width="0.734726" stroke-miterlimit="10"/>
<path d="M52.9348 138.092C55.5496 138.092 57.6693 135.972 57.6693 133.358C57.6693 130.743 55.5496 128.623 52.9348 128.623C50.3199 128.623 48.2002 130.743 48.2002 133.358C48.2002 135.972 50.3199 138.092 52.9348 138.092Z" fill="black" stroke="black" stroke-width="0.734726" stroke-miterlimit="10"/>
<path d="M225.265 217.433C227.88 217.433 229.999 215.314 229.999 212.699C229.999 210.084 227.88 207.964 225.265 207.964C222.65 207.964 220.53 210.084 220.53 212.699C220.53 215.314 222.65 217.433 225.265 217.433Z" fill="black" stroke="black" stroke-width="0.734726" stroke-miterlimit="10"/>
<path d="M220.532 149.222C221.526 149.222 222.333 148.415 222.333 147.42C222.333 146.425 221.526 145.619 220.532 145.619C219.537 145.619 218.73 146.425 218.73 147.42C218.73 148.415 219.537 149.222 220.532 149.222Z" fill="black" stroke="black" stroke-width="0.734726" stroke-miterlimit="10"/>
<path d="M67.0503 68.6544C68.0453 68.6544 68.8519 67.8478 68.8519 66.8528C68.8519 65.8578 68.0453 65.0513 67.0503 65.0513C66.0554 65.0513 65.2488 65.8578 65.2488 66.8528C65.2488 67.8478 66.0554 68.6544 67.0503 68.6544Z" fill="black" stroke="black" stroke-width="0.734726" stroke-miterlimit="10"/>
<path d="M240.49 89.4427C242.109 89.4427 243.421 88.1302 243.421 86.5111C243.421 84.8921 242.109 83.5796 240.49 83.5796C238.871 83.5796 237.558 84.8921 237.558 86.5111C237.558 88.1302 238.871 89.4427 240.49 89.4427Z" fill="black" stroke="black" stroke-width="0.734726" stroke-miterlimit="10"/>
<path d="M66.1848 207.964C66.1848 207.964 71.4837 224.497 77.5114 233.874C85.3964 246.139 97.6546 251.613 97.6546 251.613L103.072 224.014L66.1848 207.964Z" fill="#FD8571"/>
<path d="M66.1848 207.935C81.016 197.045 89.5829 194.35 100.66 182.334C111.736 170.319 121.595 157.648 126.375 153.798C131.155 149.948 156.976 142.345 167.302 139.153C177.628 135.962 178.491 144.59 172.996 151.455C169.794 155.461 145.731 168.942 145.731 168.942L147.714 223.763C147.714 223.763 134.575 235.53 128.566 237.282C122.557 239.033 114.797 238.908 111.293 241.412C107.788 243.916 97.6487 251.615 97.6487 251.615C97.6487 251.615 96.2131 240.594 87.4522 227.457C78.6913 214.32 66.1848 207.935 66.1848 207.935Z" fill="#FEB0A3"/>
<path d="M131.825 261.594C131.884 261.594 131.94 261.57 131.981 261.529C132.022 261.488 132.046 261.432 132.046 261.373C132.046 261.315 132.022 261.259 131.981 261.217C131.94 261.176 131.884 261.153 131.825 261.153C131.767 261.153 131.711 261.176 131.669 261.217C131.628 261.259 131.605 261.315 131.605 261.373C131.605 261.432 131.628 261.488 131.669 261.529C131.711 261.57 131.767 261.594 131.825 261.594Z" fill="white"/>
<path d="M153.601 143.379C150.245 144.434 146.739 145.561 143.388 146.693V227.194C143.388 227.282 143.388 227.368 143.396 227.455C145.942 225.355 147.72 223.762 147.72 223.762L145.737 168.941C145.737 168.941 149.162 167.022 153.601 164.417V143.379Z" fill="#FD8571"/>
<path d="M150.185 232.299H150.855C153.49 232.299 155.626 230.163 155.626 227.528L155.626 54.7773C155.626 52.1422 153.49 50.006 150.855 50.006H150.185C147.549 50.006 145.413 52.1422 145.413 54.7773L145.413 227.528C145.413 230.163 147.549 232.299 150.185 232.299Z" fill="#0043AE"/>
<path d="M143.657 184.479C141.779 191.68 138.267 197.963 132.326 202.61" stroke="black" stroke-width="1.32251" stroke-linecap="round" stroke-linejoin="round"/>
<path d="M204.083 32.6265H96.9596C93.6639 32.6265 90.9922 35.2982 90.9922 38.5939V112.402C90.9922 115.697 93.6639 118.369 96.9596 118.369H204.083C207.378 118.369 210.05 115.697 210.05 112.402V38.5939C210.05 35.2982 207.378 32.6265 204.083 32.6265Z" fill="#0061FA"/>
<path d="M179.879 51.6723C176.647 48.4402 172.263 46.6245 167.692 46.6245C163.121 46.6245 158.738 48.4402 155.505 51.6723L151.556 55.6222L147.607 51.6723C144.375 48.4399 139.991 46.624 135.42 46.624C130.848 46.624 126.464 48.4399 123.232 51.6723C120 54.9047 118.184 59.2887 118.184 63.8599C118.184 66.1234 118.629 68.3647 119.496 70.4558C120.362 72.547 121.631 74.4471 123.232 76.0476L127.182 79.993L151.556 104.371L175.931 79.993L179.879 76.0446C183.11 72.8121 184.925 68.4288 184.925 63.8585C184.925 59.2881 183.11 54.9048 179.879 51.6723Z" fill="#FF2B4A"/>
<path d="M162.929 157.17C156.878 159.179 153.325 163.341 151.069 168.357C148.483 174.116 153.99 177.119 153.99 177.119C153.99 177.119 145.241 179.617 145.146 187.048C145.062 193.556 150.718 194.224 150.718 194.224C150.718 194.224 143.939 195.143 144.311 202.818C144.662 210.077 155.408 208.827 155.408 208.827C149.15 213.75 152.894 221.286 162.501 219.173C170.845 217.338 178.605 215.669 179.773 208.326C180.545 203.477 177.437 201.818 177.437 201.818C177.437 201.818 180.942 198.479 181.191 193.808C181.441 189.136 177.938 186.46 177.938 186.46C177.938 186.46 180.548 185.185 181.443 179.113C182.443 172.318 176.77 170.435 176.77 170.435C176.77 170.435 179.44 164.677 178.439 159.17C177.438 153.662 170.798 151.446 170.798 151.446C170.798 151.446 168.567 154.035 167.596 155.452C166.625 156.869 162.929 157.17 162.929 157.17Z" fill="#FEB0A3"/>
<path d="M155.288 211.225C155.219 211.247 155.155 211.283 155.1 211.332C155.046 211.38 155.002 211.439 154.972 211.505C154.941 211.571 154.925 211.643 154.924 211.716C154.923 211.788 154.938 211.861 154.966 211.927C155.344 212.809 155.63 213.727 155.819 214.666C156.023 215.736 156.195 216.511 156.299 216.951C156.327 217.073 156.398 217.179 156.498 217.253C156.598 217.327 156.722 217.362 156.846 217.353C158.588 217.223 164.848 216.502 164.246 212.797C163.615 208.864 157.231 210.602 155.288 211.225ZM147.475 197.932C147.417 197.948 147.362 197.975 147.315 198.012C147.267 198.049 147.228 198.095 147.199 198.148C147.171 198.201 147.153 198.259 147.148 198.319C147.142 198.379 147.149 198.439 147.168 198.497C147.499 199.512 147.745 200.553 147.903 201.609C148.086 202.962 148.18 204.496 148.217 205.211C148.222 205.323 148.27 205.428 148.351 205.507C148.431 205.585 148.538 205.629 148.651 205.631C150.386 205.672 156.968 205.516 156.496 200.733C156.023 195.977 149.3 197.445 147.475 197.932ZM148.868 182.919C148.753 182.951 148.654 183.026 148.593 183.128C148.532 183.231 148.512 183.353 148.539 183.47C148.731 184.312 149.147 186.19 149.274 187.173C149.396 188.125 149.338 189.845 149.299 190.687C149.295 190.75 149.306 190.814 149.328 190.874C149.351 190.933 149.386 190.988 149.431 191.034C149.475 191.079 149.529 191.115 149.588 191.139C149.647 191.163 149.711 191.175 149.775 191.173C151.886 191.123 159.924 190.623 159.514 185.921C159.04 180.447 150.847 182.371 148.868 182.919ZM154.19 167.525C154.064 167.558 153.955 167.636 153.882 167.744C153.809 167.853 153.778 167.984 153.795 168.113C153.923 169.191 154.221 171.889 154.155 173.077C154.121 173.692 154.086 174.146 154.058 174.47C154.05 174.55 154.06 174.631 154.087 174.707C154.114 174.783 154.158 174.852 154.216 174.908C154.274 174.965 154.343 175.007 154.42 175.033C154.496 175.059 154.578 175.067 154.658 175.057C156.568 174.831 161.911 173.971 162.834 171.372C163.961 168.201 161.833 167.283 160.042 166.817C158.591 166.443 155.378 167.213 154.19 167.525Z" fill="black"/>
<path d="M175.684 171.194C170.698 174.345 161.665 177.072 155.616 177.16M176.873 187.277C171.052 190.626 160.101 193.411 152.653 193.974M176.435 202.61C172.93 204.801 163.48 207.569 157.16 208.508" stroke="black" stroke-width="1.32251" stroke-linecap="round" stroke-linejoin="round"/>
<path d="M167.308 139.153C156.982 142.345 131.167 149.952 126.381 153.798C124.912 154.973 122.96 156.995 120.65 159.57C124.549 160.567 128.479 161.406 132.418 162.31C137.771 163.539 135.747 168.241 140.594 170.883C146.683 167.408 170.423 154.701 173.01 151.455C178.497 144.584 177.634 135.961 167.308 139.153Z" fill="#FEB0A3"/>
<path d="M167.308 139.153C165.505 139.712 163.226 140.404 160.671 141.187C163.903 146.058 172.545 142.574 172.795 141.49C172.92 140.952 172.57 139.672 172.188 138.521C170.888 138.369 169.27 138.548 167.308 139.153Z" fill="black"/>
<path d="M157.189 159.323C161.216 157.062 165.511 155.318 169.974 154.131" stroke="black" stroke-width="1.32251" stroke-linecap="round" stroke-linejoin="round"/>
<path d="M265.272 181.607C265.805 181.607 266.238 181.175 266.238 180.642C266.238 180.108 265.805 179.676 265.272 179.676C264.739 179.676 264.307 180.108 264.307 180.642C264.307 181.175 264.739 181.607 265.272 181.607Z" fill="black" stroke="black" stroke-width="0.734726" stroke-miterlimit="10"/>
</svg>
