<svg width="49" height="42" viewBox="0 0 49 42" fill="none" xmlns="http://www.w3.org/2000/svg">
<path d="M28.1529 10.8062L24.3219 13.5134L20.4908 11.2659L17.1706 10.8062L12.7777 13.5134L12.0625 17.9574L13.8376 21.8523L23.3002 31.315H25.2668L34.1293 22.4525L37.2452 16.8847L35.9171 14.2796L32.2393 10.8062H28.1529Z" fill="#556987"/>
<path d="M24.5001 32.4798C23.7348 32.4798 23.0144 32.1816 22.4723 31.6401L13.1962 22.3637C11.8189 20.9864 11.0601 19.1552 11.0601 17.2069V17.093C11.0601 15.1447 11.8189 13.3132 13.1962 11.9362C14.5735 10.5592 16.4053 9.7998 18.3527 9.7998H18.4675C20.4149 9.7998 22.2466 10.5586 23.6239 11.9359L24.5001 12.812L25.3762 11.9359C26.7535 10.5586 28.5853 9.7998 30.5327 9.7998H30.6475C32.5949 9.7998 34.4266 10.5586 35.8039 11.9359C37.1813 13.3132 37.9401 15.1444 37.9401 17.0927V17.2066C37.9401 19.1549 37.1813 20.9864 35.8039 22.3634L26.5278 31.6398C25.9857 32.1816 25.2653 32.4798 24.5001 32.4798ZM23.6601 30.452C24.1103 30.9014 24.8907 30.9003 25.3401 30.4518L34.6162 21.1762C35.676 20.1156 36.2601 18.7063 36.2601 17.2069V17.093C36.2601 15.5936 35.676 14.184 34.6162 13.124C33.5564 12.0639 32.1463 11.4798 30.6475 11.4798H30.5327C29.0338 11.4798 27.6237 12.0633 26.5639 13.1237L25.0939 14.5937C24.7658 14.9218 24.2343 14.9218 23.9062 14.5937L22.4362 13.1237C21.3764 12.0633 19.9663 11.4798 18.4675 11.4798H18.3527C16.8538 11.4798 15.4437 12.0633 14.3839 13.1237C13.3241 14.184 12.7401 15.5933 12.7401 17.0927V17.2066C12.7401 18.706 13.3241 20.1156 14.3839 21.1756L23.6601 30.452Z" fill="#556987"/>
</svg>
